<?xml version="1.0" encoding="UTF-8"?>
<svg width="650" height="250" version="1.1" xmlns="http://www.w3.org/2000/svg">
 <g transform="translate(1014.6 18.234)">
  <path d="m-554.57 44.608-0.37418-0.05986c-1.0349-0.31924-1.9916-0.78278-2.9099-1.3548-0.63335-1.3722-1.214-2.6917-2.7446-3.1667-0.21111 1.0028-0.26419 2.058-0.31698 3.0608-0.79166 0.36944-1.5828 0.7392-2.3217 1.1086 0.10553-1.3722 0.31673-2.6389 0.58061-3.9584 1.5306-0.36945 3.0609-1.478 3.2193-3.1141-0.95001-0.10555-1.9005-0.10571-2.8505-0.15849-0.58055-2.5333-0.73827-5.2779-1.741-7.7056-1.6889-3.2722-3.0612-6.861-5.9112-9.3416-2.2167-2.1111-4.7505-3.8525-7.6005-5.0137-2.7972-1.3722-5.9639-1.2668-8.9194-1.9529-2.7445 0.73889-5.3828 1.9004-7.8634 3.2726-0.0528-0.52778-0.10574-1.6362-0.15849-2.164-0.15833 0.95001 0.26363 2.164-0.52804 2.9556-1.3194 1.5306-2.6391 3.0076-3.9058 4.5382-0.84447-0.36945-1.7412-0.89672-2.6912-0.52727-3.2722 0.42222-6.1749 2.1112-9.3416 2.9556-3.1667 1.0028-6.07 2.5861-8.9728 4.1694-1.3194 0.68611-1.9525 2.0058-2.8497 3.1141-0.68613-0.26389-1.3725-0.73889-2.1114-0.79167-6.9667 3.6417-13.986 7.2303-21.375 9.7637-10.503 4.2222-21.692 6.3336-32.828 7.8641-2.1111 0.42223-4.2748-0.1055-6.3859-0.21106-1.9 0.58056-3.8531 1.0023-5.8587 0.52726-3.325-0.79167-6.8084-1.7942-9.5-4.0109-2.7445 1.425-5.4355-0.7393-8.0744-1.4782-7.6-1.2667-14.778-5.0137-22.589-4.8026-5.1722-0.15833-10.134 1.6366-14.884 3.4311-4.75 1.8472-8.9192 5.0139-12.139 8.9194-0.84445 0.89723-2.1111 1.4247-2.5861 2.6386-2.6389 5.3834-6.8612 9.9225-8.4973 15.781-1.8472 5.4361-3.1137 10.978-4.8026 16.467-0.522 1.5853-0.37175 5.8437-0.66681 7.4739l-13.357 44.963-34.215-18.357-24.733-4.0115-12.301-7.7991c-2.8834-2.6788-4.7174-6.2008-6.1911-9.8139-3.4306-3.6417-8.4451-5.3307-13.301-5.9112-3.8 1.5306-7.0716 4.1165-10.449 6.3859-2.2167 1.3722-4.4864 2.9027-5.8587 5.1721-0.68611 1.2139-1.6361 2.2698-2.5861 3.2726-1.0028 0.73889-0.58087 2.1113-0.31698 3.1141 0.58056 0.21111 1.0337 0.39965 1.6143 0.61076l-0.0765 0.0858c-1.4166-0.33726-2.4863-0.16931-3.9653-0.16931-0.79167 1.1083-1.425 2.375-2.5861 3.1667-2.0584 1.4778-3.8524 3.431-6.2274 4.4338l-1.4782 1.3723c-3.7472 0.0528-7.4944-0.79193-11.294-0.52803-0.73889 0.475-1.2142 1.2664-1.9003 1.847-2.375-0.10555-4.7495-0.36929-7.0717-0.63318-0.475-0.58056-0.89728-1.1613-1.3723-1.7418-1.5306-0.0528-3.061 0.21121-4.5915 0.36955-1.6889-1.0028-3.7479-1.319-5.1729-2.6912-1.7417-1.6361-4.1162-2.3757-5.4884-4.3812-2.3222 0.26389-4.7501 0.36939-6.7029 1.7944-3.1139 2.1111-5.8057 4.8032-8.0752 7.8116-1.1083 1.2139-2.3753 2.375-2.9031 3.9584-0.8972 1.9528-0.4223 4.1167-0.5806 6.1223-1.3194 0.89722-3.0084 1.2141-4.1695 2.3224-0.7916 0.79167-1.53 1.6886-2.1106 2.6386-2.375 3.7472-4.75 7.5475-6.1223 11.822-1.1611 2.9556-1.003 6.28-0.528 9.4467 1.0027 4.0639 5.5942 5.2785 8.972 6.7562 2.85 1.2667 6.0696 0.31662 8.4974-1.3723 1.2139-0.84446 2.3754-1.8473 3.8532-2.164 0.0528 0.52778 0.0524 1.0556 0.10521 1.5833 0.7389 0.2639 1.4784 0.52779 2.2173 0.79168v1.0553c0.2111-0.0528 0.68551-0.21142 0.94941-0.31697 1.2667 1.2139 3.0615 0.26415 4.6448 0.52804 0.15834 0.15833 0.42228 0.47485 0.58061 0.63318 0.099 0.0791 0.19859 0.15673 0.29922 0.23271 0.10059 0.076 0.20235 0.15045 0.3046 0.22343 0.20452 0.14597 0.41202 0.2861 0.62315 0.42135 0.21111 0.13524 0.42552 0.2658 0.64324 0.39196 0.21771 0.12618 0.43902 0.24848 0.6633 0.36724 2.2167 1.1083 4.5914 1.7937 7.0192 2.1632l0.21105 0.31698c1.7417 0.58056 3.4306 1.5835 5.3306 1.5308 1.0556 0.79168 2.1637 1.5306 3.2192 2.375l0.42212-0.10596c0.0528 1.3195 1.3724 1.0554 2.3224 1.2138 1.2138 0.0528 2.4806 0.15849 3.7473 0.15849 4.0111 0.36945 7.9165 1.3721 11.928 1.4249 1.1083 0.36944 2.1645 0.68622 3.22 1.1612 2.9556 1.4778 6.3332 1.7948 9.5526 2.4809 1.0556 0.63334 2.2166 0.94992 3.3777 1.2138 4.6972 0.79167 9.3946 1.7416 13.828 3.5888 2.9556 0.68611 5.8584 1.7944 8.7084 2.7971 4.5389 0.58056 8.761 2.481 13.3 2.8505-0.0528 0.21112-0.10575 0.58055-0.15849 0.79167 2.3222 0.21112 4.4864 1.3716 6.8614 1.1604 0.89723 0.68611 1.8474 1.9532 3.1141 1.2671 0 0.31667-2e-4 1.003 0.0526 1.3197 0.68612-0.52778 1.4778-0.79193 2.164-1.3197 1.2667 0.475 2.6391 1.5835 4.1168 0.95017 1.2667 0.68611 2.797 0.36949 4.222 0.5806-0.31666 0.36945-0.58092 0.79101-0.89758 1.1604 3.1667-0.31666 6.3334-0.52762 9.5-0.63319 1.1611 0.42223 2.2701 1.1614 3.5896 1.1086 2.5861 0.15833 5.0667 0.94996 7.7056 1.0027l0.26362-0.31697c2.4278-0.52778 4.8552-1.1605 7.2302-1.7411l-0.0526-0.31697c1.8472-0.42223 3.6947-1.0025 5.2781-2.058 1.1083 0.26389 2.1109 0.9499 3.2192 1.2138 0.79167-0.21112 1.4776-0.47522 2.2165-0.73911 0.79168 0.10554 1.6367 0.15793 2.4284 0.10511 2.1639-0.21111 4.3805 0.73924 6.5444 0.10596l0.3162 0.10596c4.4861 2.2167 9.5006 3.3247 14.514 3.6414 0.0528 0.26389 0.1051 0.84475 0.1051 1.1086 0.95001-0.10554 1.9003-0.26399 2.903-0.36955 0.79167 0.31666 1.6361 1.1611 2.5861 0.79167 2.4278 0.52778 4.9079 1.055 7.4412 1.3189 2.4806-0.42222 4.9089 0.26415 7.3894 0.52804l0.0526-0.68575c0.36944-0.10553 1.0556-0.42227 1.3723-0.58061 1.9-0.47501 3.4831-1.9002 5.0136-3.1141 1.7417-0.73889 2.9027-2.3753 4.3805-3.4837 3.6417-2.9028 6.2283-6.9137 8.9728-10.555 2.0583-3.4834 3.8-7.0726 5.7527-10.609 3.6417-5.3306 6.8081-11.083 10.555-16.414 1.425-1.8472 1.6363-4.4334 3.3252-6.1223 4.2222-3.6417 8.0218-7.9164 12.772-10.977 3.325-2.0056 6.703-3.9584 10.239-5.5417 1.5306-1e-5 3.1143 5e-5 4.6449-0.21106 1.5833-0.31667 3.2721-1.5307 2.7971-3.3252 2.6389 0.26389 5.1719-0.68602 7.8108-0.42212 3.4306 0.15833 6.9137-0.21131 10.344-0.7391 3.325-1.3722 6.9145-1.9524 10.345-3.0608 1.0028-0.84445 1.7943-1.8476 3.0082-2.2699 4.6445-1.8472 9.5528-3.008 14.25-4.6441 3.325-0.73889 6.808-1.1081 9.9747-2.4276 2.4278 0.21111 5.1199 1.1604 6.2282 3.5355 0.52778 1.4778 2.2162 1.5834 3.4829 1.9529 4.6444 2.3222 9.3423 4.4864 14.303 6.0697 3.3778 0.68611 7.0723 1.0559 10.292-0.4747 4.8028-2.2167 8.919-5.6478 12.402-9.5534 0.58057-0.52778 1.1089-1.1081 1.6367-1.6359 2.1111 3.1139 3.1133 6.8614 5.4884 9.817-0.31666 1.5306-0.68617 3.2193 0.21106 4.5915 1.1083 1.7417 1.9528 3.6942 3.7473 4.8026-0.15833 0.52778-0.31635 1.003-0.4747 1.5308l0.52805-0.15849c0.89722 0.73889 1.7412 1.478 2.6912 2.1114 2.2694 0.31666 4.5919 0.0527 6.8614 0.42212 2.0056 0.26389 4.0642 0.0528 6.0697-0.21106 3.1667-0.52778 6.3861 1.4252 9.5 0.15848 2.9556-1.2667 6.2799-1.4252 9.2882-2.5335 3.1139 0.36945 6.1753-0.26424 9.2364-0.89758 2.4806 5.1722 8.6558 5.8056 13.406 7.7056 1.425 0.73889 2.9029-0.95015 4.3279-0.15849 4.0639 2.0056 7.705 4.8035 11.822 6.7563 2.7972 1.6889 6.0174 2.6912 8.9202 4.2746 2.3222 0.89722 4.2746 2.4807 6.6496 3.3252 3.0611 1.1083 5.8588 3.1664 9.1838 3.4303 2.0056 0.21112 3.8523 1.0027 5.8579 1.2138 2.85 0.73889 5.4894 2.1118 8.3922 2.7979 3.3778 1.6889 6.5967 3.7468 10.238 4.8552 0.10553-0.15835 0.3697-0.47464 0.52804-0.68576 2.5333 0.475 3.1142 3.3251 5.067 4.539 1.5834 1.1083 3.0611 2.3222 4.75 3.1667 1.3195 1.1083 2.9024 2.48 4.6441 2.5327 0.47499 1.4778 2.1108 1.7945 3.4303 2.164 0.79166 0.95 1.3725 2.0587 2.1114 3.0615 3.5361 0.36945 7.3892 0.26349 10.609-1.4782 2.7972 0.0528 4.6969-2.3745 7.0191-3.4829 0.63334-0.68611 1.267-1.4253 1.9003-2.1114 0.2111-0.21111 0.58053-0.68647 0.79167-0.89759 0.84444-1.7417-1.742-2.0576-2.692-2.9548 0.36944-0.31667 0.79156-0.6335 1.2138-0.95016 2.4278-0.68612 3.7472-3.0082 5.7527-4.3805 1.1083-0.6861 2.0584-1.6367 1.9529-3.009 1.5833-0.79167 3.2722-1.425 4.75-2.375 0.26386-0.73889 0.42207-1.4776 0.63318-2.2165-0.475-0.21112-0.94984-0.42207-1.4248-0.63318-1.5306 0.73889-3.1665 1.0555-4.8026 1.0027-1.9528-0.15833-3.5365 1.1611-4.856 2.375-0.7389-1.3722-1.5834-2.7445-2.7446-3.7473-1.5306-1.3722-2.2162-3.3252-3.4829-4.9085-0.79168 0.52779-1.5832 1.0034-2.4276 1.4256 0 0.68612 0.0523 1.3719 0.1051 2.058-2.375-0.31666-4.9086-0.26383-6.8614-1.7944-1.425-0.58056-1.847-2.0581-2.6386-3.2193-3.6945 0.58056-7.0192-1.3723-10.555-1.9529-2.7445-0.58056-5.5422 0.52732-8.1811-0.47546-2.375-0.10554-4.0108-1.8469-6.0164-2.8497-1.6361-1.3194-2.8501-3.1138-4.539-4.3805-0.95-0.63334-1.6889-1.425-2.375-2.375-2.2167 0.58056-3.4306-1.9-5.3306-2.5861-2.9028-1.1083-5.7529-2.2698-8.2862-4.0643 1.6361-1.2667 2.4808-3.2196 3.1141-5.1196-1.425-2.6917-2.7447-5.489-3.1141-8.4973-0.0528-0.84445-0.31606-1.689-0.94939-2.164-2.85-2.4278-5.2251-5.4355-8.4973-7.2828-1.5833-0.79167-2.9556-2.0056-4.539-2.9556-2.1639-1.2667-4.0644-3.1138-6.5978-3.7999-2.4806 0.89722-5.0662 1.3191-7.6523 2.058-1.9528 0.52778-3.9582-0.36919-5.9638-0.26363-2.4806 0.31667-4.8563-0.68627-7.3369-0.95016-3.0611-0.63334-6.6497-0.26425-9.1831-2.4809-4.6445-3.6417-9.9223-6.2806-15.042-9.289-2.3222-1.5306-4.8559-2.9028-7.442-3.9584-1.2139-0.52778-2.7971-0.31636-3.7998-1.2664-0.31666-2.0583-0.21122-4.1165-0.36955-6.1749l0.50114 0.50577 0.46398 0.0898 0.85313-0.17961 0.0149 0.01497c2.0584-0.89723 2.7587-2.4893 5.0282-2.8059 1.7417-0.15833 3.642-0.95042 5.2781 0.10515 1.3194 0.63334 2.6918 1.1615 4.1168 1.4782-0.84446 0-1.689 0.05293-2.5335 0.15849-0.15833 1.1611 0.15833 2.269 0.79167 3.2718 0.89722-0.475 1.5828-1.2668 2.3217-1.9529 0.36945 0.84445 0.73914 1.742 1.3197 2.4809-0.42223-0.36944-0.89727-0.79156-1.3723-1.2138-0.63333 0.79167-1.3193 1.583-2.0055 2.2691 0.42223 0.73889 0.84414 1.4778 1.2664 2.1639 0.58057 0.79167 1.2668 1.5304 1.9529 2.2165-0.10553 0.15833-0.31657 0.52819-0.42213 0.68653 0.52778-0.21111 1.0558-0.3695 1.5308-0.58061 0.68612 0.79167 1.4774 1.4777 2.4802 1.7944 1.3195 1.3194 2.9033 2.3224 4.4338 3.3252 3.1667 1.7945 6.2278 3.6945 9.5 5.3306 1.9528 0.68611 4.0636 0.15812 6.0164 0.84424 1.9 0.63333 3.9059 0.47516 5.8587 0.15849 3.0611-0.475 6.0162-1.4782 9.0246-2.2699 5.0139-1.2139 9.3947-4.0641 13.406-7.0725 2.7972-2.3222 4.8554-5.4887 7.9693-7.3887 1.2139-1.1611 2.0589-2.7443 3.22-4.0109-0.0528-0.36944-0.21142-1.1088-0.31697-1.4782-0.89723 0-1.7414 0.05314-2.6386 0.10592 1.5833-2.4806 4.0634-4.3276 5.0662-7.1776 0.58054-2.0583 1.9531-3.959 1.6892-6.1756-0.15833-2.2695-1.8476-4.0637-1.4782-6.3859-1.3194 0.63334-1.5175 0.19606-2.1508 1.4627l0.0913-1.7024c0.15835-1.3722-0.6843-2.8216 0.52959-3.8772 1.3722-1.2139 1.0027-3.2717 0.21106-4.6967-2.9028-5.4361-7.1779-9.9755-11.664-14.145-2.5861-2.375-5.1192-4.8555-8.1803-6.5444-3.2195-2.5333-7.178-4.064-11.242-4.539-2.7972-0.26389-5.3305-1.6892-8.1278-2.1114-3.5295-0.42882-7.1008-0.75431-10.661-0.73214-2.1363 0.0133-4.2682 0.15184-6.3859 0.46851-4.3806 0.31667-9.1835 1.2143-12.245 4.6449-3.0084 2.9556-5.7529 6.2272-8.2863 9.6578-1.1611 1.425 0.0958 2.6879-0.0626 4.324l-0.3595 0.47933-7.7183 1.8817z" fill="#fff" stroke="#000" stroke-width=".079167"/>
  <g stroke-width=".049479">
   <path d="m-594.33 16.224c2.4806-1.3722 5.1195-2.5333 7.8639-3.2722 2.9556 0.68611 6.1222 0.58056 8.9195 1.9528 2.85 1.1611 5.3834 2.9028 7.6 5.0139 2.85 2.4806 4.2222 6.0695 5.9111 9.3417 1.0028 2.4278 1.1611 5.1722 1.7417 7.7056 0.95001 0.05278 1.9 0.05278 2.85 0.15833-0.15833 1.6361-1.6889 2.7445-3.2195 3.1139-0.26389 1.3194-0.475 2.5861-0.58055 3.9584 0.73889-0.36945 1.5306-0.73889 2.3222-1.1083 0.0528-1.0028 0.10555-2.0583 0.31666-3.0611 1.5306 0.475 2.1111 1.7945 2.7445 3.1667 3.2195 2.0056 7.3362 2.3222 11.083 1.9 1.6361 1.2667 3.5889 0.63334 5.4361 0.21112-0.10556 0.36944-0.26389 1.0556-0.36945 1.425-0.95 0.36944-1.9528 0.73889-2.9556 0.95-1.3722 0.42222-2.4278-0.95-3.7472-0.95-3.0611-0.05278-6.175-0.26389-9.0778-1.3195-1.1083-0.475-2.3222-0.21111-3.4834-0.26389-0.42223 0.58056-0.89723 1.1611-1.3722 1.7417 0 2.2695 0.73889 4.4334 1.4778 6.5972 0.58055 2.375 1.1611 4.8028 1.7417 7.1778 0.73889 5.5417 1.4778 11.136 2.0583 16.678 1.0028 4.0111 0.52778 8.1806 0.47501 12.244 0.68611-1.1611 1.9-1.9 2.9028-2.7445 0.42222-1.1611 0.0528-2.5333 0.475-3.6945 0.26389-0.84445 1.1611-1.0028 1.7944-1.3722 0.15833 2.0583 0.0528 4.1167 0.36945 6.175 1.0028 0.95 2.5861 0.73889 3.8 1.2667 2.5861 1.0556 5.1195 2.4278 7.4417 3.9584 5.1195 3.0083 10.397 5.6472 15.042 9.2889 2.5333 2.2167 6.1222 1.8472 9.1834 2.4806 2.4806 0.26389 4.8556 1.2667 7.3362 0.95001 2.0056-0.10556 4.0111 0.79167 5.9639 0.26389 2.5861-0.7389 5.1722-1.1611 7.6528-2.0584 2.5334 0.68612 4.4334 2.5334 6.5972 3.8 1.5833 0.95001 2.9556 2.1639 4.5389 2.9556 3.2722 1.8472 5.6472 4.8556 8.4973 7.2834 0.63334 0.47501 0.89723 1.3195 0.95001 2.1639 0.36945 3.0084 1.6889 5.8056 3.1139 8.4973-0.63334 1.9-1.4778 3.8528-3.1139 5.1195 2.5333 1.7944 5.3834 2.9556 8.2862 4.0639 1.9 0.68611 3.1139 3.1667 5.3306 2.5861 0.68612 0.95001 1.425 1.7417 2.375 2.375 1.6889 1.2667 2.9028 3.0611 4.5389 4.3806 2.0056 1.0028 3.6417 2.7445 6.0167 2.85 2.6389 1.0028 5.4361-0.10556 8.1806 0.475 3.5361 0.58056 6.8611 2.5333 10.556 1.9528 0.79167 1.1611 1.2139 2.6389 2.6389 3.2195 1.9528 1.5306 4.4861 1.4778 6.8612 1.7944-0.0528-0.68612-0.10556-1.3722-0.10556-2.0583 0.84445-0.42223 1.6361-0.89723 2.4278-1.425 1.2667 1.5833 1.9528 3.5361 3.4834 4.9084 1.1611 1.0028 2.0056 2.375 2.7444 3.7472 1.3194-1.2139 2.9028-2.5333 4.8556-2.375 1.6361 0.0528 3.2722-0.26389 4.8028-1.0028 0.475 0.21111 0.95 0.42222 1.425 0.63334-0.21111 0.73889-0.36945 1.4778-0.63334 2.2167-1.4778 0.95-3.1667 1.5833-4.75 2.375 0.10556 1.3722-0.84445 2.3222-1.9528 3.0083-2.0056 1.3722-3.325 3.6945-5.7528 4.3806-0.52778 0.15833-1.0556 0.31666-1.5306 0.475-0.15834 0.475-0.31667 0.95-0.475 1.425-0.15834 0.42223-0.31667 0.84446-0.42223 1.2667 0.475 1.2667 0.89723 2.4806 1.2139 3.7472-2.3222 1.1083-4.2222 3.5361-7.0195 3.4834-1.3722-0.2639-2.7445-0.52778-4.1167-0.79167-0.15833-0.79167-0.31667-1.5833-0.475-2.3222-0.68611 0.68612-1.3194 1.425-1.9528 2.1639-0.58056 0.10556-1.2139 0.21111-1.7945 0.31667-0.21111 0.31667-0.58056 0.89723-0.79167 1.2139-1.3722-1.3195-2.4278-3.0611-4.2222-3.8528-0.63333-0.31667-1.2667-0.58056-1.9-0.89723-1.7417-0.95-3.6417-1.6361-5.5417-2.1111-1.6889-0.84445-3.1667-2.0583-4.75-3.1667-1.9528-1.2139-2.5333-4.0639-5.0667-4.5389 0.79167-1.0028 1.6361-1.9528 2.4278-2.9028-3.1667-3.2722-6.5972-6.5972-11.083-7.9695-0.52778 0.52778-1.0556 1.1083-1.5306 1.6361 1.1083 0.63333 2.1111 1.425 3.0611 2.2695-0.79167 1.425-1.9 2.7444-3.6417 2.7972-2.9028-0.68612-5.5417-2.0584-8.3917-2.7972-2.0056-0.21112-3.8528-1.0028-5.8584-1.2139-3.325-0.26389-6.1222-2.3222-9.1834-3.4306-2.375-0.84445-4.3278-2.4278-6.65-3.325-2.9028-1.5833-6.1222-2.5861-8.9195-4.275-4.1167-1.9528-7.7584-4.75-11.822-6.7556-1.425-0.79167-2.9028 0.89723-4.3278 0.15833-4.75-1.9-10.925-2.5333-13.406-7.7056-0.10556-0.21111-0.31667-0.58055-0.36945-0.79167-0.26389-0.84444-1.425-0.63333-2.0583-0.36944-0.26389 0.10556-0.84445 0.26389-1.1611 0.36944 0.26389 0.26389 0.475 0.58056 0.7389 0.84445-2.1639-0.10555-4.3278 0.10556-6.3862 0.84445-3.0083 1.1083-6.3334 1.2667-9.2889 2.5333-1.1083-0.84444-2.1639-1.8472-3.4834-2.2694-2.2167-0.0528-4.3806 0.95001-6.5445 0.10556-0.36944 0.42222-0.73889 0.84445-1.1083 1.2667-1.1083-0.79167-2.1639-1.8472-3.6417-1.9-3.4306-0.10555-6.9667-0.79167-10.344 0.31667l-0.52778 0.15833c0.15833-0.52778 0.31667-1.0028 0.475-1.5306-1.7944-1.1083-2.6389-3.0611-3.7472-4.8028-0.89722-1.3722-0.52778-3.0611-0.21111-4.5917-2.375-2.9556-3.3778-6.7028-5.4889-9.8167-0.52778 0.52778-1.0556 1.1083-1.6361 1.6361-1.425-0.26389-2.9028-0.475-4.3278-0.68611-0.26389 0.31666-0.475 0.58055-0.73889 0.89722-0.79167-0.52778-1.5833-1.0556-2.5333-1.425 3.3778-2.2695 4.4334-6.5973 7.5472-9.1306-0.31667-1.0028-0.58056-2.0056-0.84445-3.0611-0.475 0.58055-0.95 1.1611-1.425 1.6889-1.5306-3.4834-2.1111-7.2306-3.1139-10.872-0.89722-1.5833-2.375-2.6917-3.6417-4.0111-2.2694 0.68611-4.2222-0.63334-6.3861-1.1083-2.9028 0.84445-5.8056 2.1111-8.9723 1.9-3.8 0.15833-8.1806-0.15833-10.872-3.2722-1.7944-2.2167-3.6417-4.4334-5.7528-6.3861-1.5306-1.2667-1.1611-3.5361-2.4278-4.9611-2.5334-3.4306-4.1695-7.8639-3.0611-12.139 0.26389-1.0028 0.52778-2.9556 2.0056-2.5333 0.42222 1.7417-0.7389 3.3778-0.68612 5.1195-0.36944 3.2722 1.2667 6.2278 2.7972 9.025 0.52778 1.2139 1.7944 1.7417 2.9028 2.3222 0.36944 2.375 1.7944 4.4334 3.4834 6.0695 1.5306 1.4778 2.7972 3.4306 4.9611 4.0111 2.4806 0.73889 5.0667 1.2667 7.7056 1.2667 3.4834-0.42222 6.9139-1.5306 10.028-3.1667 2.2695-1.425 4.4861-3.0611 7.2306-3.5361-0.10556-0.42222-0.15833-0.89722-0.21111-1.3194-1.2667-0.84445-2.4278-1.9-3.0084-3.325-0.63333-1.425-1.6889-2.6917-2.1639-4.1695-0.58056-3.6417 1.0028-7.2306 0.52778-10.872-0.21111-1.6361 0-3.2722-0.31667-4.8556-0.95-2.7972-1.8472-5.6472-1.7944-8.6556 1.3722 2.0056 1.8472 4.4334 2.85 6.65-0.36945-1.3722-0.84445-2.6917-1.2139-4.0639-0.475-1.4778 0.31667-3.0083-0.26389-4.4334-0.84445-2.375-1.4778-4.8028-1.5833-7.3361-3.8528 0.95-7.8112 0-11.664-0.05278-3.4306 0-6.65-1.3194-9.4473-3.1139-0.63334-0.36944-0.95001-1.0028-1.3195-1.5306 2.6389 0.52778 4.8028 2.4278 7.4945 2.7972 2.1639 0.42222 4.3806 0.52778 6.5445 0.73889 2.7972 0.21112 5.5417-0.52778 8.2861-0.21111-0.10555-2.1639-0.52778-5.8584 2.5334-6.0167 0.0528 2.1639-0.95001 4.1695-0.84445 6.2806 0.0528 5.3834 2.375 10.344 4.2222 15.253 1.1611 3.325 3.325 6.4389 2.9556 10.133 0.95 7.2306 3.325 14.25 3.8528 21.586 1.0028 4.1695 1.5306 8.4973 2.375 12.72 0.31666 1.9528-0.21112 3.9584-0.26389 5.9111 0.42222 2.7444 1.1611 5.4361 1.7417 8.1278 0.58056 2.7972 2.1111 5.225 3.325 7.8112 1.2139 2.5333 3.4306 4.3278 4.9611 6.65 0.36944 0.52778 0.89722 0.84445 1.4778 1.1083 6.3334 2.1111 13.089 1.0028 19.633 0.63334 4.1695 0.15834 8.3389-0.26389 12.456-0.84445 4.0111-0.79167 8.075-1.0028 12.033-2.1111 5.3306 0.42223 10.239-2.2694 15.253-3.7472 2.7972-0.42222 5.4361-1.5833 8.2334-1.8472 2.1111-0.21111 4.1695-0.79167 6.2806-1.0028 2.9028 1.4778 5.4361 3.9056 8.8667 4.0111 0.10555 0.475 0.26389 0.95 0.42222 1.4778 1.6361-0.36945 3.2722 0.0528 4.8028 0.52778 1.2667 0.475 1.5306 1.9528 2.2695 3.0083 1.5833 0.95001 3.325 1.5306 5.0139 2.375 1.9528-1.9 0.31667-4.6972 0.84444-6.9667 0.89723-1.5306 1.0028-3.4834 0.0528-5.0667-4.9611-5.2778-11.031-9.4473-17.522-12.614-2.5333-0.0528-5.0667 0.26389-7.4417 1.2667-3.0611 0.26389-6.2278 0.36945-9.2889-0.26389-3.5889-0.79167-7.2834-1.2667-10.925-1.8472-2.0056-0.42222-4.0111 0.0528-6.0167 0.0528-1.5833 0-3.1667-0.42222-4.75-0.475-7.6 0-15.411-0.36945-22.853 1.5306-1.3194 1.425-2.5334 3.0611-4.5389 3.3778-0.10556-0.36944-0.26389-1.1611-0.36945-1.5306 0.84445-0.36945 1.7417-0.68611 2.5334-1.1611 0.21111-1.5306 0.31667-3.0611-0.15834-4.4861-0.26388-1.5306 0.10556-3.0611-0.21111-4.5917-0.52778-5.8584 0.21111-11.822-0.42222-17.733-0.475-5.9639-1.3722-11.928-2.0056-17.892-0.42223-2.9028-1.3722-5.7528-2.0056-8.6028-0.79167-3.3778-2.2167-6.5445-2.5333-9.975 0-2.0583 0.63333-4.0111 0.68611-6.0167 0.0528-4.3806-0.79167-8.8667-3.325-12.508-1.9-4.4861-6.1222-7.3361-10.397-9.2362-2.0056-1.0028-4.275-0.95-6.4389-1.1611-0.21111 0.68611-0.42223 1.3722-0.58056 2.0583-0.79167-0.63334-1.5306-1.425-2.4278-1.9528-2.9556 0.15833-5.8056 1.7945-7.7056 4.0639-1.1083 1.2667-2.1639 2.6389-3.2722 3.9056-3.1667-0.68612-6.2806 0.52778-9.2889 1.425-2.6389 0.73889-4.8028 2.5333-7.2306 3.8-2.1111 1.0556-4.0639 2.2695-6.0167 3.5361 0.10556 0.79167 0.26389 1.5833 0.26389 2.375-0.58056 0.475-1.2139 0.84445-1.8472 1.2139-0.58056-0.52778-1.1083-1.1083-1.6361-1.6361-1.3722 1.7945-4.1167 2.4278-5.8056 0.73889-7.8111 3.8-15.886 6.9139-24.172 9.5-6.2278 1.9-12.667 3.1667-19.106 4.1695-2.4278 0.42223-4.9084 0.42223-7.3361 1.1611 2.1111 3.1667 4.3806 6.3334 5.5417 9.975 3.3778 7.125 4.4334 15.042 5.7 22.747-0.63333-0.73889-1.2139-1.425-1.7944-2.2167-1.3194-4.6972-1.6889-9.6056-3.1667-14.303-0.84445-2.6917-2.2167-5.1722-3.2722-7.8111-1.2139-3.1667-3.325-5.9111-5.7528-8.1806 1.3194 2.5333 3.3778 4.5917 4.4334 7.2306 1.5833 4.275 2.7445 8.7084 3.8 13.142 1.6889 7.8111-0.26389 15.728-0.42222 23.645-0.26389 3.2195-1.2667 6.3334-1.9528 9.5v-1.3194c-0.31667 0-0.84445-0.0528-1.1611-0.0528 1.0556-3.9583 1.9528-8.0223 1.9528-12.139 0-3.8 1.0028-7.5473 0.79167-11.347-0.21111-3.325-0.0528-6.7028-1.1611-9.8695-1.6361-5.1722-2.4278-10.925-6.1223-15.095-1.2139-1.5306-2.7972-3.2195-4.9084-3.1667-4.0111-0.10556-7.4417-2.4278-11.294-3.2722 1.3194 2.85 2.9028 5.5945 4.0639 8.55 1.425 3.9056 3.5361 7.6 3.8 11.822 0.52778 7.8639 1.0028 15.728 1.9 23.539-0.31667 1.5306-0.63334 3.0611-1.0556 4.5389 0.475-5.0139-0.95001-9.9223-0.95001-14.936-0.0528-2.3222-0.63333-4.5917-0.89722-6.8611-0.36945-2.5333-0.0528-5.0667-0.52778-7.6-0.58056-3.9584-2.85-7.3889-4.1695-11.136-1.425-2.85-2.85-5.9639-5.6472-7.7056 0.475 3.0083 2.2167 5.5945 3.2722 8.3917-0.15833 0.31667-0.42222 0.89722-0.52778 1.2139-1.0028-2.375-2.2694-4.75-4.1167-6.5972-1.5306-1.5306-1.6889-4.3806-4.0639-4.9611-5.3306-2.0056-10.819-3.4306-16.308-4.9084-7.8639-1.6361-16.045 0.21111-23.17 3.6417-2.9556 1.7417-5.9111 3.5889-8.2334 6.1223-2.2167 2.7445-3.6417 6.0695-6.1222 8.6556-1.6889 2.2167-3.0611 4.6972-4.4334 7.125-3.0611 6.2278-3.8 13.247-6.2278 19.686-1.3722 5.6472-1.9528 11.506-3.4306 17.153-0.79167 3.2195-0.7389 6.5445-0.84445 9.8167-1.0028 8.8139-1.7944 17.681-1.1611 26.547 0 1.2139 1.0556 2.0584 1.4778 3.1667-0.10556 1.0028-1.2139 1.3722-1.8472 1.9528-1.425-1.1611-2.9028-2.2167-4.4861-3.0611-4.75-2.3222-8.8139-5.7-13.3-8.3389-5.4361-2.5861-10.872-5.1722-16.045-8.1806-5.1722-2.9556-11.294-3.1667-16.731-5.4361-2.2167-0.95-4.5389-1.5833-6.8611-2.0583-6.4917-1.2139-12.931-2.9028-19.317-4.5917-4.5389 1.3722-8.3389 4.3278-11.928 7.2834-3.0084 3.1139-5.5945 6.7028-7.6528 10.503 4.8028 1.425 9.7112 2.4806 14.303 4.4861-0.0528 0.47501-0.21111 1.4778-0.26389 2.0056-3.0611-1.2139-6.0695-2.5334-9.2889-3.1139-2.3222-0.2639-4.3806-1.3722-6.5972-1.8472-7.125-2.3222-14.408-4.0639-21.692-5.7-3.1139-0.31667-5.8584-1.9528-8.8667-2.7445-1.5833-0.42222-3.0083-1.2139-4.5389-1.6889-3.8 0.42223-5.7528 4.0111-8.4973 6.2278-2.0056 1.5833-3.2722 3.9056-4.4861 6.1222-2.1111 3.325-3.0084 7.3361-2.9556 11.242-0.21111 2.2694-0.21111 4.8556-1.7417 6.7028-1.7944 2.375-4.5389 4.0111-6.0695 6.7028-0.89723 1.3722-0.36945 3.1139-0.0528 4.5917 1.1083 1.0028 2.7444 1.1083 4.1695 1.3194 5.7528 0.475 11.294 1.9 16.942 3.1139 16.097 2.5334 31.192 9.5 47.395 11.717 5.3306 1.0028 10.556 2.2695 15.781 3.6945 2.4806 0.47501 5.0139 0.84445 7.4945 1.5306 4.3806 1.2667 9.025 1.4778 13.511 2.375 3.8528 1.0556 8.1806 1.3195 11.875-0.52777-0.475 0.58055-0.89723 1.2139-1.3194 1.8472 0.475 0.31667 0.89723 0.63333 1.3722 0.95-0.68612 0.89722-1.3722 1.7944-2.1111 2.6389 1.7417-0.0528 3.3778 0.31667 4.9611 1.0028-0.15833 0.0528-0.52778 0.26389-0.68612 0.36945-2.7444-0.79167-5.2778 0.73889-7.9695 0.95-1.1083 0.0528-2.0584 0.58056-3.0084 0.95001-1.3722-0.26389-2.5334-1.2139-3.9056-1.425-2.5333-0.36944-5.1195-0.21111-7.6528 0.15834-3.4834-0.68612-6.9139-1.7417-10.45-2.3222-3.7472-0.63333-7.4417-1.7944-11.242-2.0056-4.5389-0.36945-8.7612-2.2695-13.3-2.85-2.85-1.0028-5.7528-2.1111-8.7084-2.7972-4.4334-1.8472-9.1306-2.7972-13.828-3.5889-1.1611-0.26388-2.3222-0.58055-3.3778-1.2139-2.1111-1.6889-4.5389-3.0083-7.1778-3.5889-1.6361-0.63334-3.1667-1.6361-4.9611-1.7417-2.0056-0.0528-4.0639 0.15834-6.0695-0.31667-2.7444-0.68611-5.5417-0.95-8.3389-1.2139-2.5333-1.0028-5.1195-2.0056-7.8639-1.8472-1.9 0.0528-3.5889-0.95-5.3306-1.5306l-0.21111-0.31667c-1.3722-2.5861-4.6972-2.1111-6.9139-3.3778-0.89723-1.5306-0.89723-3.4306-1.1611-5.1722 1.0028 0.21111 2.0056 0.36944 3.0611 0.36944-0.95001-0.84444-1.7944-1.9528-3.0611-2.1111-1.6361 0.63333-2.85 2.0583-4.5389 2.375-1.7944 0.0528-3.6417-0.2639-5.4361-0.15834-1.4778 0.31667-2.6389 1.3194-3.8528 2.1639-2.4278 1.6889-5.6472 2.6389-8.4973 1.3722-3.3778-1.4778-7.9695-2.6917-8.9723-6.7556-0.475-3.1667-0.63334-6.4917 0.52778-9.4473 1.3722-4.275 3.7472-8.075 6.1222-11.822 0.58056-0.95001 1.3194-1.8472 2.1111-2.6389 1.1611-1.1083 2.85-1.425 4.1695-2.3222 0.15833-2.0056-0.31667-4.1695 0.58055-6.1222 0.52778-1.5833 1.7945-2.7445 2.9028-3.9584 2.2694-3.0084 4.9611-5.7 8.075-7.8112 1.9528-1.425 4.3806-1.5306 6.7028-1.7944 1.3722 2.0056 3.7472 2.7445 5.4889 4.3806 1.425 1.3722 3.4834 1.6889 5.1722 2.6917 1.5306-0.15834 3.0611-0.42223 4.5917-0.36945 0.475 0.58056 0.89723 1.1611 1.3722 1.7417 2.3222 0.26389 4.6972 0.52779 7.0723 0.63334 0.68611-0.58056 1.1611-1.3722 1.9-1.8472 3.8-0.26389 7.5472 0.58056 11.294 0.52778 1.5833 1.2667 3.1667 2.6389 5.2778 2.7445 5.2778 1.9 10.767 3.4306 16.308 4.275 4.1695 0.84446 8.075 2.6917 12.244 3.3778 0.7389-0.68612 1.2139-1.5306 1.7417-2.375-0.79167-0.21112-1.3194-0.89723-0.95-1.7417 0.475-1.4778 1.3722-2.7444 2.4278-3.8528 4.275-4.3278 8.2861-9.1834 13.986-11.664-2.3222-1.2139-3.4834-3.6417-4.9611-5.7-1.425-1.7417-1.5306-4.2222-3.1139-5.8584-1.8472-1.5833-4.0639-2.7972-6.4389-3.325-1.2667 2.4278-4.2222 2.7972-6.0167 4.6445-4.275 1.9-6.1222 6.5445-9.7639 9.2361-1.7945 1.2667-2.85 3.1667-4.4334 4.5917-2.7972 2.9028-6.8084 4.0639-9.8695 6.5972-1.3722 0.2639-1.3722-1.425-1.6889-2.3222-0.84445 0.68612-1.5833 1.4778-2.4806 2.1111-0.89722-0.21111-1.5833-1.3722-0.79167-2.1111 2.375-1.0028 4.1695-2.9556 6.2278-4.4334 1.1611-0.79167 1.7944-2.0584 2.5861-3.1667 2.1111 0 4.3806-0.21111 6.175 0.95 3.5889-3.325 7.0195-6.8084 10.081-10.661 1.7944-2.7445 5.3306-3.1139 7.8639-4.9084-0.21111-0.89723-0.95-1.7417-1.9528-1.4778-2.6917 0.84445-5.3306 1.9528-7.5473 3.6945-2.7972 2.1639-6.4389 3.4306-8.1806 6.7028-1.4778 1.6361-2.1639 3.6417-2.2695 5.8056-0.58055-0.21111-1.1611-0.42222-1.7417-0.63333-0.26389-1.0028-0.68611-2.375 0.31667-3.1139 0.95-1.0028 1.9-2.0583 2.5861-3.2722 1.3722-2.2695 3.6417-3.8 5.8584-5.1722 3.3778-2.2695 6.65-4.8556 10.45-6.3861 4.8556 0.58056 9.8695 2.2695 13.3 5.9111 1.6361 4.0111 3.6417 7.9695 7.125 10.714-0.21111 0.31667-0.63334 1.0028-0.84445 1.3722 1.0028-0.475 1.9-1.2139 2.9556-1.5833 1.7417 1.2139 3.1667 3.0084 5.3306 3.5889 6.9667 2.2694 14.25 3.325 21.217 5.5945 5.6472 1.8472 11.294 3.4834 16.889 5.4361 1.7417 0.73889 2.7972-1.3722 4.2222-2.0056 4.4861-2.1111 7.8639-5.9111 11.981-8.6028 3.4306-1.425 6.0167-4.1695 8.7611-6.5445 3.7472-2.2694 6.8084-5.4889 10.925-7.1778 1.3722-4.3278 1.4778-8.9195 2.9028-13.247 1.6889-5.4889 2.9556-11.031 4.8028-16.467 1.6361-5.8584 5.8584-10.397 8.4973-15.781 0.475-1.2139 1.7417-1.7417 2.5861-2.6389 3.2195-3.9056 7.3889-7.0723 12.139-8.9195 4.75-1.7945 9.7112-3.5889 14.883-3.4306 7.8111-0.21112 14.989 3.5361 22.589 4.8028 2.6389 0.73889 5.3306 2.9028 8.075 1.4778 2.6917 2.2167 6.175 3.2195 9.5 4.0111 2.0056 0.475 3.9584 0.05278 5.8584-0.52778 2.1111 0.10556 4.275 0.63334 6.3862 0.21111 11.136-1.5306 22.325-3.6417 32.828-7.8639 7.3889-2.5333 14.408-6.1223 21.375-9.7639 0.73889 0.05278 1.425 0.52778 2.1111 0.79167 0.89722-1.1083 1.5306-2.4278 2.85-3.1139 2.9028-1.5833 5.8056-3.1667 8.9723-4.1695 3.1667-0.84445 6.0695-2.5333 9.3417-2.9556 0.95-0.36945 1.8472 0.15833 2.6917 0.52778 1.2667-1.5306 2.5861-3.0083 3.9056-4.5389 0.79167-0.79167 0.36945-2.0056 0.52778-2.9556 0.0528 0.52778 0.10556 1.6361 0.15834 2.1639z" fill="#1f1f20" stroke="#1f1f20"/>
   <path d="m-525.66 23.666c5.6472-0.84445 11.4-0.42222 17.047 0.26389 2.7972 0.42222 5.3306 1.8472 8.1278 2.1111 4.0639 0.475 8.0223 2.0056 11.242 4.5389 3.0611 1.6889 5.5945 4.1695 8.1806 6.5445 4.4861 4.1695 8.7612 8.7084 11.664 14.145 0.79167 1.425 1.1611 3.4833-0.21111 4.6972-1.2139 1.0556-0.58056 2.7445-0.73889 4.1167 0.15833 1.2667-1.1611 2.2167-2.375 2.0056-0.63334-2.1111 1.6361-3.9056 0.68611-5.9639-1.0556-3.3778-3.2195-6.2278-4.9611-9.2889-1.5306-2.6917-4.1695-4.3806-6.5972-6.175-2.6389-1.9528-5.4889-3.8-8.55-5.0667-0.84445-0.42222-1.6361 0.31667-2.4278 0.475-9.1306-1.3722-18.525-0.15834-27.392 2.3222-5.3306 1.4778-9.1306 5.5945-13.722 8.3917-0.15834-0.42223-0.36945-0.84445-0.58056-1.2667 3.7472-1.7945 6.5445-5.0139 10.292-6.8084 5.1722-2.375 10.872-3.0611 16.361-4.1695 3.6417-0.36944 7.2306-0.42223 10.872-0.36944 0.89722-0.10556 1.7417-0.475 2.6389-0.63334 2.1111 0 4.1167 0.84445 6.1222 1.425-3.5889-5.0667-9.8167-7.7056-15.939-7.8639-0.95001-1.9-3.2195-1.4778-4.9611-1.6889-1.9-0.15833-3.8 0.36945-5.7 0.52778 0.31667-0.63334 0.68611-1.2139 1.0556-1.8472-2.2167-0.05278-4.4861-0.10556-6.7028 0.26389-3.5889 0.42222-7.3361 0.52778-10.661 2.0583-2.5861 1.1083-4.5389 3.2195-6.4389 5.225-1.1611 1.1611-2.2167 2.4278-2.9556 3.9056 3.8-2.5333 6.175-7.5473 11.083-8.1806-1.2667 2.3222-4.1167 3.0611-5.8056 4.9611-2.0056 2.0583-4.2222 4.0111-5.6472 6.5445 6.7556-5.1722 14.62-8.7084 22.853-10.872 1.9528-0.15833 4.3278-1.8472 5.9639-0.15833-0.0528 0.21111-0.21111 0.68611-0.26388 0.89722-2.9028-0.21111-5.7 0.42222-8.4445 1.2139-7.4417 2.375-14.831 5.6472-20.478 11.189-0.89722 1.0556-2.2694 1.4778-3.5889 1.6361 0.15834-1.6361-0.73889-3.3778 0.42222-4.8028 2.5334-3.4306 5.2778-6.7028 8.2862-9.6584 3.0611-3.4306 7.8639-4.3278 12.244-4.6445z" fill="#1e1f21" stroke="#1e1f21"/>
   <path d="m-515.21 32.585c4.0639-0.36945 8.0222-1.7945 12.139-1.3722 0.95 0.10556 1.3722 1.0556 1.9528 1.6889-5.3306-1.0556-10.608 0.475-15.939 0.89722-5.5945 1.2667-11.558 2.4278-15.992 6.2278-1.4778 1.1083-2.6917 2.4806-3.8 3.9584-1.1083 0.05278-1.2139-1.3722-0.42222-1.9 2.6917-2.7972 5.9111-5.2778 9.6056-6.5972 4.0639-1.2667 8.1806-2.4806 12.456-2.9028z" fill="#252628" stroke="#252628"/>
   <path d="m-490.25 33.219c1.6889 0.21111 2.5861 1.7417 3.5889 2.9556-0.79167-0.15833-1.5306-0.26389-2.3222-0.31667-0.475-0.89722-0.89723-1.7945-1.2667-2.6389z" fill="#fbfcfd" stroke="#fbfcfd"/>
   <path d="m-486.92 33.641c2.2695 1.4778 4.1695 3.4306 6.175 5.2778 3.2195 3.1667 6.3334 6.4917 8.6028 10.397 0.84446 1.5306 2.7972 3.3778 1.3722 5.0667-0.68611-1.6361-0.84444-3.4833-1.9528-4.9611-1.3722-1.9528-3.0084-3.7472-4.5389-5.5417-2.0056-2.5861-5.4889-3.5889-7.3889-6.2806-0.47501-1.4778-1.2139-2.85-2.2695-3.9584z" fill="#fdfdfe" stroke="#fdfdfe"/>
   <path d="m-519.8 39.024c0.52778-0.36944 1.2139-1.3722 1.9528-0.68611 2.2694 1.4778 5.0667 2.2167 7.0195 4.275 2.4278 2.4806 5.3834 4.4334 7.5473 7.1778 1.7944 2.2695 4.0111 4.1695 5.7 6.4917 1.0028 1.425 2.0584 2.85 3.325 4.0639 1.9528 1.7945 3.4306 4.6445 2.4278 7.2834-1.9528-0.52778-1.6361-2.9028-2.85-4.2222-1.0028-1.1083-1.6889-2.5333-2.4278-3.8528-1.5833-2.2695-3.4834-4.275-5.3306-6.3334-1.9528-2.4278-4.1167-4.75-6.5972-6.65-2.0584-1.8472-4.1695-3.7472-6.7556-4.8556-1.4778-0.68611-3.4306-0.89723-4.0111-2.6917z" fill="#202021" stroke="#202021"/>
   <path d="m-747.91 44.144c7.125-3.4306 15.306-5.2778 23.17-3.6417 5.4889 1.4778 10.978 2.9028 16.308 4.9084 2.375 0.58056 2.5334 3.4306 4.0639 4.9611 1.8472 1.8472 3.1139 4.2222 4.1167 6.5972 3.6945 9.3417 6.0167 19.422 5.8584 29.503 0.10556 2.7972 0.21111 5.7-0.68611 8.3917-0.36945 1.6889-1.7417 2.85-2.4278 4.3278-0.15834 1.7945 0.31667 3.5889-0.15834 5.3306-0.475 0.42222-1.0556 0.73889-1.6361 0.95-4.3806 1.7417-8.7084 3.4834-12.983 5.3834-0.79167 0.15833-1.1611 0.84445-1.4778 1.4778 2.5861-0.10556 4.9084-1.3195 7.2306-2.4278 2.2694-1.0556 4.6445-1.6889 7.0195-2.5333-0.2639 1.3722 0.21111 2.5861 1.2139 3.4834-0.73889 1.6889-0.95001 3.5361-1.3194 5.3306-0.95001 0.475-1.8472 0.95-2.6389 1.6361-5.3306 4.1695-12.614 4.9084-17.575 9.7112 2.1639-6.8611 5.1195-13.353 6.9139-20.32 0.10556-0.73889 0.95-0.89723 1.5306-1.1611 3.7472-1.3194 7.6-2.4278 11.506-3.2195 1.0028-0.15833 2.4806-0.95 1.5833-2.1111-2.0056 0.0528-3.8 1.1083-5.7 1.6361-2.5861 1.0028-5.2778 1.5833-7.9695 2.1639 1.1083-4.5917 2.85-8.9195 4.1695-13.406 0.63333-2.1639 0.475-4.4861 0.42222-6.7028-0.58056 0.05278-1.2139 0.15833-1.7944 0.21111 0.52778 6.3334-2.4806 12.086-3.9056 18.103-0.42222 1.9-1.9 3.3778-2.0056 5.3834-0.52778 4.6445-3.0083 8.6556-4.4861 13.036-1.5833 4.0111-2.7972 8.1806-4.8028 11.981-1.5833 2.9556-2.4278 6.2278-4.0639 9.1306-1.9528 3.3778-3.2722 7.0195-4.8556 10.556-0.95001 2.1111-2.375 3.9584-3.2722 6.0695-1.0556 2.6917-2.85 4.9611-4.275 7.4417-2.5333 4.0639-4.1167 8.6556-6.9667 12.508-3.1139 2.9028-5.3306 7.2306-9.8167 8.1806-0.73889-0.73889-1.4778-1.4778-2.1639-2.2167l-0.31667-0.31667c-4.4334 0-8.8667-0.79167-13.247-1.7417-1.3722-0.15833-2.7444 0.10556-4.1167 0.10556-0.10556-0.58056-0.21111-1.1083-0.31667-1.6889-2.7444-0.79167-5.225-2.2694-8.075-2.7972-2.9028-0.73889-5.9639-0.10556-8.9195-0.475-3.4834-0.89723-7.0722-0.31667-10.608-0.52778-6.8611 0.58056-12.614-3.8-17.945-7.4945-5.3834-3.4306-10.028-7.8639-14.514-12.403-4.1695-4.0639-7.125-9.0778-10.556-13.722-3.2722-3.9056-7.6528-6.8611-12.35-8.7612-4.5917-2.0056-9.5-3.0611-14.303-4.4861 2.0583-3.8 4.6445-7.3889 7.6528-10.503 3.5889-2.9556 7.3889-5.9111 11.928-7.2834 6.3861 1.6889 12.825 3.3778 19.317 4.5917 2.3222 0.475 4.6445 1.1083 6.8611 2.0583 5.4361 2.2694 11.558 2.4806 16.731 5.4361 5.1722 3.0084 10.608 5.5945 16.045 8.1806 4.4861 2.6389 8.55 6.0167 13.3 8.3389 1.5833 0.84444 3.0611 1.9 4.4861 3.0611 0.63333-0.58056 1.7417-0.95001 1.8472-1.9528-0.42223-1.1083-1.4778-1.9528-1.4778-3.1667-0.63333-8.8667 0.15834-17.733 1.1611-26.547 0.10555-3.2722 0.0528-6.5972 0.84445-9.8167 1.4778-5.6472 2.0583-11.506 3.4306-17.153 2.4278-6.4389 3.1667-13.458 6.2278-19.686 1.3722-2.4278 2.7445-4.9084 4.4334-7.125 2.4806-2.5861 3.9056-5.9111 6.1222-8.6556 2.3222-2.5333 5.2778-4.3806 8.2334-6.1223z" fill="none" stroke="#fff"/>
   <path d="m-703 47.363c2.7972 1.7417 4.2222 4.8556 5.6472 7.7056 1.3194 3.7472 3.5889 7.1778 4.1695 11.136 0.475 2.5333 0.15833 5.0667 0.52778 7.6 0.26389 2.2695 0.84444 4.5389 0.89722 6.8611 0 5.0139 1.425 9.9223 0.95001 14.936-0.26389 1.0556-0.63334 2.1111-0.95001 3.1667-0.15833-0.63334-0.26389-1.2139-0.58056-1.7945-0.52777 0.26389-1.0556 0.52778-1.5833 0.84445 0.63334-4.1167 1.0028-8.2861 0.42223-12.403-0.21112-10.133-2.4278-20.267-6.2278-29.661-1.0556-2.7972-2.7972-5.3834-3.2722-8.3917z" fill="#fdfdfe" stroke="#fdfdfe"/>
   <path d="m-699.51 47.152c3.8528 0.84445 7.2834 3.1667 11.294 3.2722 2.1111-0.05278 3.6945 1.6361 4.9084 3.1667 3.6945 4.1695 4.4861 9.9223 6.1223 15.095 1.1083 3.1667 0.95 6.5445 1.1611 9.8695 0.21111 3.8-0.79167 7.5473-0.79167 11.347 0 4.1167-0.89723 8.1806-1.9528 12.139-1.3195 5.5417-3.0084 12.297-8.8139 14.672-1.5833 0.36945-1.3722 2.4806-2.7445 3.0083-2.3222 1.0028-4.9084 0.68612-7.3889 0.89723 2.4278-2.4278 4.8556-5.3306 5.0139-8.9195 0.36944-3.6945 2.375-7.6 0.95-11.294 3.2722-1.8472 2.2167-6.2806 2.0056-9.3417-0.89723-7.8111-1.3722-15.675-1.9-23.539-0.26389-4.2222-2.375-7.9167-3.8-11.822-1.1611-2.9556-2.7445-5.7-4.0639-8.55z" fill="#fff" stroke="#fff"/>
   <path d="m-683.47 49.897c2.4278 2.2695 4.5389 5.0139 5.7528 8.1806 1.0556 2.6389 2.4278 5.1195 3.2722 7.8111 1.4778 4.6972 1.8472 9.6056 3.1667 14.303 0.36945 7.6 0 15.253-1.4778 22.747-1.0556 3.5889-1.8472 7.2834-3.8 10.503-0.84445 1.4778-2.375 2.4806-3.8 3.3778 0.15834-2.5861 0.84445-5.1195 1.6889-7.5472 0.36945-1.9528 0.52778-3.9056 1.0556-5.8584 0.68611-3.1667 1.6889-6.2806 1.9528-9.5 0.15833-7.9167 2.1111-15.833 0.42222-23.645-1.0556-4.4334-2.2167-8.8667-3.8-13.142-1.0556-2.6389-3.1139-4.6972-4.4334-7.2306z" fill="#fdfdfe" stroke="#fdfdfe"/>
   <path d="m-480.27 50.952c0.63334 0.26389 1.2667 0.52778 1.6889 1.1083 0.475 1.9 0.89722 3.9056 0.31667 5.8056-0.31667-0.05278-0.84445-0.21111-1.1083-0.31667 0.31667-2.2695-0.95-4.3278-0.89723-6.5973z" fill="#252426" stroke="#252426"/>
   <path d="m-699.72 55.755c3.8 9.3945 6.0167 19.528 6.2278 29.661 0.58055 4.1167 0.21111 8.2861-0.42223 12.403 0.52778-0.31667 1.0556-0.58056 1.5833-0.84445 0.31667 0.58056 0.42223 1.1611 0.58056 1.7945 0.31667-1.0556 0.68612-2.1111 0.95001-3.1667 0.42222-1.4778 0.73889-3.0083 1.0556-4.5389 0.21111 3.0611 1.2667 7.4945-2.0056 9.3417 1.425 3.6945-0.58056 7.6-0.95 11.294-1.8472-0.475-3.6945-0.73889-5.5945-0.84445-1.0028-0.89723-1.4778-2.1111-1.2139-3.4834-2.375 0.84445-4.75 1.4778-7.0195 2.5333-2.3222 1.1083-4.6445 2.3222-7.2306 2.4278 0.31667-0.63334 0.68611-1.3195 1.4778-1.4778 4.275-1.9 8.6028-3.6417 12.983-5.3834 0.58056-0.21111 1.1611-0.52778 1.6361-0.95 0.47501-1.7417 0-3.5361 0.15834-5.3306 0.68611-1.4778 2.0583-2.6389 2.4278-4.3278 0.89722-2.6917 0.79167-5.5945 0.68611-8.3917 0.15834-10.081-2.1639-20.161-5.8584-29.503 0.10556-0.31667 0.36945-0.89722 0.52778-1.2139z" fill="#161719" stroke="#161719"/>
   <path d="m-470.82 63.197c0.63333-1.2667 1.425-2.4806 2.7444-3.1139-0.36944 2.3222 1.3194 4.1167 1.4778 6.3861 0.26389 2.2167-1.1083 4.1167-1.6889 6.175-1.0028 2.85-3.4834 4.6972-5.0667 7.1778 0.89723-0.05278 1.7417-0.10556 2.6389-0.10556 0.10556 0.36944 0.26389 1.1083 0.31667 1.4778-1.1611 1.2667-2.0056 2.85-3.2195 4.0111-3.1139 1.9-5.1722 5.0667-7.9695 7.3889-4.0111 3.0083-8.3917 5.8584-13.406 7.0723-3.0084 0.79167-5.9639 1.7944-9.025 2.2694-1.2667-0.73889-2.3222-1.7417-3.2722-2.85-1.0556-0.05278-2.1111-0.15833-3.2195-0.21111-0.10555-0.42222-0.15833-0.79167-0.26389-1.1611-1.7417-0.68611-3.4834-1.4778-5.3834-1.5306-1.3722-0.05278-2.85-0.15833-4.0639-0.89723-1.5833-0.89723-3.5889-1.4778-4.275-3.3778l-0.10556-0.21111c-0.52778-0.31667-1.1083-0.63333-1.6361-0.95 1.0028-0.58056 2.1639-0.15833 3.2722 0 3.0611 0.63333 6.175 0.79167 9.2889 1.1083 0-0.68611-0.0528-1.425-0.10555-2.1111 7.0722 0.21112 14.144-0.73889 21.111-1.9528 6.65-1.2667 12.667-4.75 17.733-9.1834 1.4778-1.5306 2.9556-3.1667 3.9056-5.1195 0.47501-1.6889 1.0556-3.3778 1.8472-4.9611-0.36945-0.05278-1.0556-0.10555-1.425-0.15833-0.10556-1.6889-1.1083-3.5361-0.21111-5.1722z" fill="#212120" stroke="#212120"/>
   <path d="m-487.08 61.824c0.58056-0.05278 1.1611-0.05278 1.7944-0.05278 1.5833 3.1667 3.325 6.65 2.6389 10.344-0.63333 2.3222-1.4778 5.1195-4.0639 5.9111-0.84444 0.58056-1.9-1.0556-1.1083-1.6889 0.84446-0.79167 2.0056-1.425 2.1639-2.6917 0.42223-2.1111 1.5833-4.3806 0.58056-6.5445-0.36944-1.9-2.2167-3.2722-2.0056-5.2778z" fill="#191a1c" stroke="#191a1c"/>
   <path d="m-553.74 64.991c-0.89723-1.2139 0.31667-2.85 1.6889-2.6917 4.0111-0.15833 7.9695 0.58056 11.875 1.1611 0.0528 0.36945 0.15833 1.0028 0.21111 1.3722-4.2222-0.05278-8.4445-2.1111-12.614-0.68611 1.1083 1.4778 2.5334 2.6389 4.2222 3.3778 1.0028 0.58056 2.5333 0.79167 2.7972 2.1639-3.0611-0.73889-6.4917-1.9528-8.1806-4.6972z" fill="#222224" stroke="#222224"/>
   <path d="m-479.74 64.147c0.475-0.475 1.0028-1.0028 1.5833-1.425 1.9528 1.7417 2.9556 4.3806 5.1722 5.9111 1.1083 0.95 0.36944 2.6389-0.58056 3.4306-1.7944 2.2695-4.9084 3.0083-7.6528 2.7445-0.10556-0.26389-0.36945-0.73889-0.475-0.95 0.73889-1.0556 1.0028-2.2695 1.2667-3.4833 0.52778 0 1.0028-0.05278 1.5306-0.10556 0.58056 0.58056 1.1611 1.1083 1.7417 1.6889 0.68611-0.26389 1.3722-0.52778 2.0583-0.79167-0.58056-2.85-2.7445-4.9611-4.6445-7.0195z" fill="#1c1c1e" stroke="#1c1c1e"/>
   <path d="m-469.08 63.936c0.89723 0.31667 0.36945 1.8472-0.26389 2.2167-0.84445-0.31667-0.58056-2.0056 0.26389-2.2167z" fill="#8c8c8a" stroke="#8c8c8a"/>
   <path d="m-480.8 65.624c0.36945-0.15833 1.1611-0.42222 1.5306-0.58056 0.68612 0.84445 1.425 1.5833 2.1111 2.4278-0.36945 0.84445-1.2139 0.95-2.0056 1.1083-0.63334-0.89723-1.4778-1.7945-1.6361-2.9556z" fill="#1b1c1e" stroke="#1b1c1e"/>
   <path d="m-487.5 66.363c0.26389 0.10555 0.79167 0.36944 1.0556 0.475 0.36945 1.9 0.31667 3.9056 0.2639 5.8056-0.52779 0.84445-1.2667 1.4778-1.9528 2.1639-0.31667-0.15833-0.89723-0.58056-1.2139-0.73889 0.26389-1.0028 1.0028-1.6889 1.6361-2.5333 0.21111-1.6889-0.63333-3.4833 0.21111-5.1722z" fill="#1a1b1d" stroke="#1a1b1d"/>
   <path d="m-492.31 72.169c0.2639-0.10555 0.79167-0.31667 1.0556-0.42222 1.1611 2.3222 1.1611 5.3306 0.36944 7.8111-1.6361 2.6917-4.6445 4.1695-7.5472 5.0139-4.4861 0.73889-9.025 0.79167-13.511 0.79167-3.9584 0.10555-7.9167-1.3722-11.769-0.15833-2.4806 0.05278-5.1195-0.42223-7.3362 0.95 4.3806 0.89722 8.8139 1.0556 13.3 1.0028 2.4806-0.05278 4.9611-0.63334 7.4945-0.58056-0.21111 1.1083-1.425 1.0556-2.3222 1.2139-3.6417 0.31667-7.2306 0.95-10.872 1.1083-3.5361 0-7.2306-0.05278-10.45-1.6889-0.52778 0.31667-1.0028 0.63334-1.4778 0.95-0.42222-0.68611-0.84444-1.425-1.2667-2.1639 0.68612-0.68612 1.3722-1.4778 2.0056-2.2695 0.475 0.42222 0.95 0.84445 1.3722 1.2139-0.58056-0.73889-0.95001-1.6361-1.3195-2.4806-0.73888 0.68612-1.425 1.4778-2.3222 1.9528-0.63333-1.0028-0.95-2.1111-0.79167-3.2722 0.84445-0.10556 1.6889-0.15833 2.5334-0.15833-1.425-0.31667-2.7972-0.84445-4.1167-1.4778-1.6361-1.0556-3.5361-0.26389-5.2778-0.10556-2.2694 0.31667-3.8528 2.0583-5.9111 2.9556 0.36945-2.4278 2.7972-3.6417 4.8028-4.4334 1.5306-0.31667 3.1139-0.36945 4.6972-0.58056 1.9-0.26389 3.6417 0.63334 5.3306 1.2667 5.1195 0.42222 9.8695 2.375 14.725 3.7472 4.275-0.26389 8.3389 1.3194 12.561 0.84445 3.325-0.58056 6.8084 0.21111 10.028-0.95 1.8472-0.73889 3.8-1.425 5.1195-2.9556 1.3722-2.1111 0.84445-4.75 0.89722-7.125z" fill="#1b1c1d" stroke="#1b1c1d"/>
   <path d="m-506.03 73.436c0.26389 0.26389 0.26389 0.26389 0 0z" fill="#909090" stroke="#909090"/>
   <path d="m-478.37 75.283c2.2694 1.0028 1.0556 3.8 0.26389 5.4361-0.36945 0.89723-1.2667 0.84445-2.0583 0.63334 1.0028-1.9 1.425-3.9584 1.7944-6.0695z" fill="#1d1e20" stroke="#1d1e20"/>
   <path d="m-671.28 80.191c0.58056 0.79167 1.1611 1.4778 1.7944 2.2167 0.15834 7.5473-0.10555 15.2-1.7417 22.642-0.68611 4.4334-2.5334 8.6556-3.8528 12.931 7.8111-1.5833 15.147-4.6972 22.695-7.2306 3.8528-1.3194 7.9167-1.9 11.875-2.7972 3.5889-0.73889 7.2834-0.63334 10.82-1.6889 2.4806 1.2139 5.1722 1.9 7.4945 3.3778 5.3306 2.85 10.133 7.0195 16.256 8.1278 4.3278 1.7944 8.6028-0.68611 12.667-2.0583 0.95 0.36944 1.7417 0.89722 2.5333 1.425 0.26389-0.31667 0.475-0.58056 0.73889-0.89722 1.425 0.21111 2.9028 0.42222 4.3278 0.68611-3.4834 3.9056-7.6 7.3362-12.403 9.5528-3.2195 1.5306-6.9139 1.1611-10.292 0.475-4.9611-1.5833-9.6584-3.7472-14.303-6.0695 0-0.63333-0.0528-1.2139-0.10555-1.8472-0.95001-0.15833-2.0056-0.15833-2.85-0.68611-0.95-1.0556-1.1611-2.5334-1.5833-3.8-1.7417 0.15834-3.4834 0.31667-5.1722 0.84445-3.1667 1.3194-6.65 1.6889-9.975 2.4278-4.6972 1.6361-9.6056 2.7972-14.25 4.6445-1.2139 0.42223-2.0056 1.425-3.0084 2.2695-3.4306 1.1083-7.0195 1.6889-10.344 3.0611-3.4306 0.52778-6.9139 0.89723-10.344 0.73889-2.6389-0.26389-5.1722 0.68612-7.8111 0.42223-1.5833 0-2.2167 1.5306-3.0084 2.6389-1.5306 0.21111-3.0611 0.36945-4.4334 0.89723-3.5361 1.5833-6.9139 3.5361-10.239 5.5417-4.75 3.0611-8.55 7.3361-12.772 10.978-1.6889 1.6889-1.9 4.275-3.325 6.1222-3.7472 5.3306-6.9139 11.083-10.556 16.414-1.9528 3.5361-3.6945 7.125-5.7528 10.608-2.7445 3.6417-5.3306 7.6528-8.9723 10.556-1.4778 1.1083-2.6389 2.7444-4.3806 3.4834-1.9528-0.21111-3.9584-0.15834-5.9111 0.26389-2.2167 0.475-4.0111-1.2139-6.1222-1.5833-0.63334 0.21111-1.2139 0.63333-1.8472 1.0028-0.15834-0.26389-0.36945-0.52778-0.52778-0.79167-0.475 0.26389-0.95001 0.58056-1.425 0.84445-3.9584-0.63334-7.8112-2.1639-11.875-2.1111-1.5833 0.10555-3.1139-0.31667-4.5389-0.89723-2.4278-0.475-4.9084 0.0528-7.3889-0.21111-3.7472-0.26389-7.2834-1.5306-10.925-2.4278-4.1695-0.73889-8.8139-0.475-12.35 2.1111-0.42222 0.26389-0.84445 0.475-1.2667 0.73889-1.5833-0.68611-3.2195-1.0556-4.9611-1.0028 0.73889-0.84445 1.425-1.7417 2.1111-2.6389-0.475-0.31667-0.89723-0.63333-1.3722-0.95 0.42222-0.63334 0.84445-1.2667 1.3194-1.8472 2.6917-2.7972 7.2306-2.9028 9.6056-6.175 2.4806 0.63333 4.9084-0.7389 7.2306-1.5833-3.0083-0.58056-6.0695 0.15833-8.9723-0.63334-4.3806-1.3194-8.3917-3.5889-12.033-6.3334-7.4417-5.0139-14.514-10.767-20.214-17.786-2.1639-3.0611-4.5917-5.9639-6.7028-9.0778-1.5833-2.3222-3.8-4.0639-6.1222-5.5417-1.6889-1.0028-3.5361-1.5833-5.1722-2.5861 0.0528-0.52778 0.21112-1.5306 0.26389-2.0056 4.6972 1.9 9.0778 4.8556 12.35 8.7612 3.4306 4.6445 6.3861 9.6584 10.556 13.722 4.4861 4.5389 9.1306 8.9723 14.514 12.403 5.3306 3.6945 11.083 8.075 17.945 7.4945 3.5361 0.21111 7.125-0.36945 10.608 0.52778 2.9556 0.36944 6.0167-0.26389 8.9195 0.475 2.85 0.52778 5.3306 2.0056 8.075 2.7972 0.10556 0.58056 0.21111 1.1083 0.31667 1.6889 1.3722 0 2.7444-0.26389 4.1167-0.10556 4.3806 0.95001 8.8139 1.7417 13.247 1.7417l0.31667 0.31667c-0.52779 0.79167-1.0556 1.5833-1.6361 2.3222 0.7389-0.0528 1.5306-0.475 2.2695-0.21111 1.2139 1.1083 2.2167 2.375 3.325 3.5889 1.2139-0.79167 2.375-1.6889 2.9028-3.1139-1.3722 0.68611-2.85 1.5833-4.4861 1.2139-0.0528-0.36944-0.15834-1.1611-0.21112-1.5833 4.4861-0.95 6.7028-5.2778 9.8167-8.1806 2.85-3.8528 4.4334-8.4445 6.9667-12.508 1.425-2.4806 3.2195-4.75 4.275-7.4417 0.89723-2.1111 2.3222-3.9584 3.2722-6.0695 1.5833-3.5361 2.9028-7.1778 4.8556-10.556 1.6361-2.9028 2.4806-6.175 4.0639-9.1306 2.0056-3.8 3.2195-7.9695 4.8028-11.981 1.4778-4.3806 3.9584-8.3917 4.4861-13.036 0.10556-2.0056 1.5833-3.4834 2.0056-5.3834 1.425-6.0167 4.4334-11.77 3.9056-18.103 0.58056-0.05278 1.2139-0.15833 1.7944-0.21111 0.0528 2.2167 0.21111 4.5389-0.42222 6.7028-1.3194 4.4861-3.0611 8.8139-4.1695 13.406 2.6917-0.58056 5.3834-1.1611 7.9695-2.1639 1.9-0.52778 3.6945-1.5833 5.7-1.6361 0.89722 1.1611-0.58056 1.9528-1.5833 2.1111-3.9056 0.79167-7.7584 1.9-11.506 3.2195-0.58056 0.26389-1.425 0.42223-1.5306 1.1611-1.7944 6.9667-4.75 13.458-6.9139 20.32 4.9611-4.8028 12.244-5.5417 17.575-9.7112 0.79167-0.68612 1.6889-1.1611 2.6389-1.6361 0.36944-1.7944 0.58056-3.6417 1.3194-5.3306 1.9 0.10556 3.7472 0.36945 5.5945 0.84445-0.15833 3.5889-2.5861 6.4917-5.0139 8.9195 2.4806-0.21111 5.0667 0.10556 7.3889-0.89723 1.3722-0.52777 1.1611-2.6389 2.7445-3.0083 5.8056-2.375 7.4945-9.1306 8.8139-14.672 0.31666 0 0.84444 0.0528 1.1611 0.0528v1.3194c-0.52778 1.9528-0.68611 3.9056-1.0556 5.8584-0.84445 2.4278-1.5306 4.9611-1.6889 7.5472 1.425-0.89722 2.9556-1.9 3.8-3.3778 1.9528-3.2195 2.7445-6.9139 3.8-10.503 1.4778-7.4945 1.8472-15.147 1.4778-22.747z" fill="#1c1c1b" stroke="#1c1c1b"/>
   <path d="m-530.78 81.563c1.8472 0.73889 3.7472 1.5306 5.6472 2.1639-2.1639-0.10555-4.1695-0.68611-6.2278-1.1611 0.15833-0.26389 0.42222-0.73889 0.58055-1.0028z" fill="#fcfdff" stroke="#fcfdff"/>
   <path d="m-591.79 83.833c0.36945-0.21111 1.1083-0.63334 1.425-0.89723 0.79167 1.1611-0.0528 2.4278-1.2139 2.7445-0.0528-0.475-0.15833-1.3722-0.21111-1.8472z" fill="#525451" stroke="#525451"/>
   <path d="m-481.7 85.469c0.73889-0.68611 1.6889 0.42223 0.63333 0.84445-0.73889 0.68611-1.6889-0.42222-0.63333-0.84445z" fill="#606061" stroke="#606061"/>
   <path d="m-533.89 87.211c3.2195 1.6361 6.9139 1.6889 10.45 1.6889-2.0583 0.21111-4.1695 0.10556-6.2278 0.15833 1.2139 1.7417 3.325 2.2695 5.1722 2.85 0.68611 1.9 2.6917 2.4806 4.275 3.3778 1.2139 0.73889 2.6917 0.84445 4.0639 0.89723 1.9 0.05278 3.6417 0.84445 5.3834 1.5306 0.10556 0.36945 0.15834 0.73889 0.26389 1.1611 1.1083 0.05278 2.1639 0.15833 3.2195 0.21111 0.95001 1.1083 2.0056 2.1111 3.2722 2.85-1.9528 0.31667-3.9584 0.47501-5.8584-0.15833-1.9528-0.68611-4.0639-0.15833-6.0167-0.84445-3.2722-1.6361-6.3334-3.5361-9.5-5.3306-1.5306-1.0028-3.1139-2.0056-4.4334-3.325-0.79167-1.1611-1.6889-2.2695-2.6389-3.2722-0.31667 0.475-0.63334 0.89722-0.95001 1.3722-0.68611-0.68611-1.3722-1.425-1.9528-2.2167 0.47501-0.31667 0.95001-0.63334 1.4778-0.95z" fill="#3b3b39" stroke="#3b3b39"/>
   <path d="m-493.2 89.322c2.4278-0.36945 4.75-1.0028 7.1778-1.1083-8.6556 3.6417-18.314 3.8528-27.55 3.5361 0.79167-1.2667 2.5333-0.52778 3.8-0.73889 5.5417-0.475 11.083-0.89722 16.572-1.6889z" fill="#fdfdfd" stroke="#fdfdfd"/>
   <path d="m-533.42 90.377c0.31667-0.475 0.63334-0.89722 0.95001-1.3722 0.95 1.0028 1.8472 2.1111 2.6389 3.2722-1.0028-0.31667-1.7945-1.0028-2.4806-1.7945-0.475 0.21111-1.0028 0.36944-1.5306 0.58056 0.10556-0.15833 0.31667-0.52778 0.42222-0.68612z" fill="#777" stroke="#777"/>
   <path d="m-552.53 90.325c1.2139 0.26389 2.4278 0.10556 3.6417 0.21111 2.9028 0.58056 5.5945 2.0583 8.075 3.6945 2.6917 1.7417 5.7 2.9556 8.2862 4.9084 2.4278 1.5833 5.225 2.6389 7.2834 4.75-3.1667 0.73889-6.2278-0.79167-9.3945-0.36944-4.275 0.26389-8.55-0.36945-12.825 0.26389-3.1667 0.26388-6.4389 1.425-9.5528 0.21111 0.31667-0.89723 0.79167-1.7417 1.0556-2.6917-0.58056-2.5333-1.0556-5.1722-0.52778-7.7584 1.1083-1.2667 2.6389-2.1639 3.9584-3.2195z" fill="#fff" stroke="#fff"/>
   <path d="m-520.07 93.755c0.68611-0.42222 1.425-0.68611 2.2694-0.52778 4.275 0.42223 8.55 0.42223 12.825 1.0028-0.73889 0-1.425 0.05278-2.1111 0.05278-3.9584 0.21111-7.8639-0.21112-11.822-0.42222-0.26389 0-0.89723-0.05278-1.1611-0.10556z" fill="#8c8c8a" stroke="#8c8c8a"/>
   <path d="m-518.91 93.861c3.9584 0.21111 7.8639 0.63334 11.822 0.42222-0.36944 0.68611-0.73889 1.3194-1.0556 2.0056-1.7417-0.52778-3.5889-0.36944-5.3834-0.73889-1.7944-0.475-3.5889-1.1083-5.3834-1.6889z" fill="#3e3e3c" stroke="#3e3e3c"/>
   <path d="m-689.59 104.73c-0.21111-2.2167 1.1083-4.6445 3.4306-5.1195 0.95001 1.6361 1.5833 4.1695-0.475 5.3306-0.79167 1.2667-2.2694 1.0028-2.9556-0.21111z" fill="#1c1c1c" stroke="#1c1c1c"/>
   <path d="m-695.55 100.62c0.84444 0 1.7417-0.0528 2.5861-0.0528-0.21111 2.2167-1.2667 4.1695-2.7445 5.7528-0.10555-1.2139 0.52778-2.3222 0.84445-3.4834-0.0528-0.79167-0.475-1.4778-0.68611-2.2167z" fill="#fdfefe" stroke="#fdfefe"/>
   <path d="m-783.22 105.42c1.5833-1.1611 3.2722-2.1639 5.0667-3.0611-0.26389 2.7972-0.68612 5.5417-0.68612 8.3389 0.0528 6.0167-1.3194 11.981-1.0028 17.997-0.21111 3.2195 0.52778 6.4389 0.42222 9.6584-0.42222-0.0528-1.2667-0.10555-1.6889-0.15833-0.15834 0.73889-0.31667 1.5306-0.47501 2.2694-4.6445-2.4806-8.9195-5.6472-13.458-8.3389-5.0667-2.5333-10.186-4.9611-15.2-7.6528 2.2167-1.9528 4.3278-4.0639 6.9667-5.4361-1.1083 2.2694-4.1695 3.1139-4.275 5.8584 0.79167 0.0528 1.5833 0.0528 2.375 0 0.475-0.95 0.89723-2.0056 1.6889-2.7972 3.4834-3.8528 7.5472-7.2306 11.4-10.714 2.85-2.1111 5.9111-3.9584 8.8667-5.9639z" fill="#fff" stroke="#fff"/>
   <path d="m-695.03 109.75c0.31666-1.3194 0.68611-2.6917 1.9-3.4306-0.26389 1.3194-0.79167 2.5861-1.9 3.4306z" fill="#888886" stroke="#888886"/>
   <path d="m-586.09 109.75c1.5306-0.84445 0.0528 1.7417 0 0z" fill="#fcfdff" stroke="#fcfdff"/>
   <path d="m-653.38 112.91c3.3778-1.1611 6.8611-2.1111 10.397-2.4806-7.125 1.6889-14.039 4.1695-20.953 6.4389 3.3778-1.6361 7.125-2.3222 10.556-3.9584z" fill="#fbfcfd" stroke="#fbfcfd"/>
   <path d="m-865.13 114.87c2.375-1.6361 4.9611-3.1667 7.8639-3.6945-2.5333 2.1111-5.5945 3.4306-8.1278 5.5417-2.375 1.8472-4.5917 3.9056-6.3334 6.3334-1.1611 1.3194-1.9 3.0611-3.5361 3.9056 0.15833-0.95 0.21111-2.0583 0.89723-2.85 3.1139-3.0611 5.9111-6.4389 9.2362-9.2362z" fill="#fff" stroke="#fcfdfe"/>
   <path d="m-697.35 114.87c1.0028-0.68612 1.9528-1.4778 2.6917-2.4278-0.31667 2.6389-1.7417 4.9611-4.0111 6.2806 0.31667-1.3194 0.58056-2.6917 1.3194-3.8528z" fill="#fdfdfd" stroke="#fdfdfd"/>
   <path d="m-905.35 117.66c1.7944-2.375 4.8556-4.3278 7.9167-3.8-1.9528 2.3222-5.225 2.6917-7.9167 3.8z" fill="#f5f5f6" stroke="#f5f5f6"/>
   <path d="m-632.38 115.39c1.6889-0.52778 3.4306-0.68611 5.1722-0.84445 0.42223 1.2667 0.63334 2.7445 1.5833 3.8 0.84445 0.52778 1.9 0.52778 2.85 0.68611 0.0528 0.63334 0.10555 1.2139 0.10555 1.8472-1.2667-0.36945-2.9556-0.475-3.4834-1.9528-1.1083-2.375-3.8-3.325-6.2278-3.5361z" fill="#393836" stroke="#393836"/>
   <path d="m-957.7 122.62c1.6889-3.3778 4.8028-5.5945 7.7584-7.7584 3.9584 0.15833 6.8084 3.3778 9.9223 5.3834 1.7417 1.5833 4.3806-1.0556 5.9639 0.58055-0.42222 1.8472-2.2167 2.7445-3.3778 4.0639-1.2667 1.3722-3.2195 2.6389-2.9556 4.8028 0.42223 1.7944 0.0528 3.8 0.7389 5.5945 0.89722 1.3194 2.375 2.1111 3.5361 3.2195 0.84445 1.6361 0.42223 3.5361 0.68611 5.2778 0.15834 1.7417 1.2139 3.2722 0.84445 5.0667-1.6889-0.21111-3.2722 0.26389-4.6972 1.1083-0.10556 1.1611 1.1611 1.6889 1.8472 2.4278-0.63333 0.52779-1.2139 1.0556-1.7417 1.5833 0.21111-0.475 0.475-0.95 0.73889-1.4778-1.2139-1.7944-3.4306-2.1639-5.3834-2.6389 0.73889-0.89722 1.425-1.9 0.73889-3.0084-3.1667 1.5833-6.0695 3.6417-8.7084 5.9639-2.0583 0.73889-4.0639 1.5306-5.7528 2.9556 1.1083 2.0583-1.5306 2.85-2.9028 3.6945-2.375 1.5833-4.9611 3.5889-7.9695 3.0084-3.0611-1.2139-6.9139-2.1111-8.4445-5.4361-1.2139-4.9084 0.36944-10.081 2.9556-14.25 1.5306-2.4806 2.85-5.1722 4.75-7.3889 0.89722-0.79167 2.1111-1.0028 3.1667-1.4778-1.425 1.5306-2.85 3.1139-4.0111 4.8556-2.0584 3.1667-4.6445 6.0167-6.0695 9.5-0.21112 0.79167-0.58056 2.5861 0.68611 2.5333 0.84445 0.31667 0.89723-0.89722 1.2139-1.3722 0.89723-2.3222 2.375-4.275 3.6945-6.3334 1.3722-2.1111 2.6917-4.3278 4.4334-6.2278 4.0639-3.9056 5.1195-9.7639 8.3389-14.25z" fill="#fff" stroke="#fff"/>
  </g>
  <g fill="#fbfcfd" stroke="#fbfcfd" stroke-width=".049479">
   <path d="m-686.63 119.19c2.0056-0.84445 3.325-2.5861 4.6972-4.1695-0.31666 1.0028-0.26389 2.2695-1.0028 3.0084-1.2139 0.36945-2.4806 0.68611-3.6945 1.1611z"/>
   <path d="m-963.09 124.63c2.5333-3.1139 4.9611-6.3334 8.2861-8.7084-2.1639 2.1639-4.1167 4.4861-5.5417 7.1778-1.3722 2.0583-2.1111 4.5389-3.8528 6.3334 0.10555-1.6361 0.0528-3.4306 1.1083-4.8028z"/>
   <path d="m-676.18 120.14c1.1611-0.58056 2.5333-0.73889 3.9056-0.79167-1.2139 0.63334-2.5861 0.95-3.9056 0.79167z"/>
   <path d="m-703.79 120.41c0.36944-0.42222 1.7417-0.26389 1.0556 0.475-0.52777 0.47501-1.1611 0.68612-1.7944 0.58056-0.84444-0.42222 0.31667-1.0028 0.7389-1.0556z"/>
  </g>
  <g stroke-width=".049479">
   <path d="m-925.82 124.37c1.1611-1.7417 3.1667-2.6917 4.8556-3.8528 1.7944-0.0528 3.4834 0.2639 5.225 0.42223-2.5334 1.9528-4.4334 4.5917-6.8612 6.7028s-3.6945 5.1722-5.1722 7.9167c-1.4778 2.7445-2.0583 5.9111-2.0583 8.9723-0.10556 2.5861-0.42223 5.3306-2.2167 7.3362-1.5833 1.5833-3.2195 3.1139-4.6972 4.8028-1.0556 1.1083-1.2139 2.6917-1.6889 4.0639-0.95001-0.79167-0.84445-2.1111-0.68612-3.2195 1.0556-2.3222 3.2195-3.8528 5.225-5.3834 1.5833-1.9 2.3222-4.4334 2.375-6.9139-0.52778-0.58056-1.3194-1.0556-1.4778-1.9-0.89723-3.9056-0.0528-8.0223 2.0056-11.4 1.6361-2.5861 3.4306-5.0667 5.1722-7.5473z" fill="#fff" stroke="#fcfdfe"/>
   <path d="m-935.54 125.69c1.3194-1.0556 2.4806-2.375 3.8528-3.3778-0.10555 1.2139-0.52777 2.375-1.4778 3.1667-1.6889 1.4778-3.3778 3.1139-5.5417 3.9584 0.475-1.6889 1.9-2.6917 3.1667-3.7472z" fill="#fbfcfd" stroke="#fbfcfd"/>
   <path d="m-511.67 124.16c3.7472-0.68612 7.4945-1.6889 11.347-1.9 1.1611-0.15833 2.0583 0.73889 3.0084 1.3194 3.6945 2.4806 7.9695 3.8528 11.875 5.9639 4.5917 1.8472 8.9195 4.3278 12.878 7.2834 1.7944 1.2667 4.1167 1.3722 6.0167 2.4278 3.7472 2.7972 8.1806 4.6445 11.294 8.2334 0.31667 0.52778 1.0556 1.0028 0.95001 1.7417-0.36945 0.42223-0.7389 0.84445-1.1083 1.2667 0.15833 0.63333 0.36944 1.2667 0.58056 1.9 0.31666-0.58055 0.63333-1.1611 1.0028-1.7417 1.3722-0.15833 2.6389 0.36945 3.9056 0.95 1.9 0.42223 3.9056 1.0028 5.8584 0.68612 3.1667-0.63334 6.5972-0.15833 9.3945 1.425 1.0028 0.58055 2.1639 0.73889 3.2722 1.0028 1.0556 0.79167 2.0583 1.6361 3.325 2.1111-1.3722 0.79167-1.8472 2.1639-2.1111 3.5889-1.4778 1.7944-3.9056 3.0084-6.2278 2.5861-1.1083-0.15834-2.1639-0.42223-3.2195-0.47501 0.26389 0.52779 0.31667 1.425 1.1611 1.425 1.7944 0.52778 3.7472 0.58056 5.6472 0.15833 1.9 2.4806 4.6445 4.2222 7.6 5.225 0 0.89722 0.0528 1.7417-0.0528 2.5861-0.63333 0.52778-1.4778 0.68612-2.1639 1.0028 0.15834 0.68612 0.31667 1.3722 0.475 2.0584 1.2139-0.2639 2.4278-0.42223 3.6417-0.58056-0.42222-2.1111-0.52778-4.2222-0.0528-6.3334-2.1111-0.31666-4.1695-1.0556-5.7528-2.5333-0.0528-0.31667-0.10556-0.89722-0.15834-1.1611 2.0584 0 3.9584 0.7389 5.9639 1.0556 0.31667-0.47501 0.68611-0.95001 1.0556-1.3722-0.0528 0.36944-0.10556 1.0556-0.15834 1.425 2.4806 2.0584 0.7389 5.5417 2.1111 8.1278-1.425 1.7944-3.2722 3.4306-5.7528 3.4834-3.1139-0.31667-5.9639-1.8472-8.9195-2.9028-5.1195-2.1111-8.1278-7.0195-12.561-10.133-2.5333-1.8472-4.5917-4.275-7.1778-5.9639-3.325-0.79167-5.8056-3.5361-9.2362-3.9056-3.4306-0.31667-6.8084-1.2667-10.186-1.9528-7.6528-1.2667-13.828-6.2806-21.111-8.4973-3.9056-1.9528-8.2334-3.5361-11.083-6.9139-3.2722-0.10555-6.5973-0.58055-9.5528-2.0583-1.2667-2.0056-2.375-4.9611-0.68611-7.0195 1.3722-1.425 2.7444-3.325 4.9084-3.5889z" fill="#fff" stroke="#fff"/>
   <path d="m-937.22 130.96c2.9028-2.4278 6.65-4.4334 7.8112-8.2334 0.73889 0.10556 1.4778 0.21112 2.2167 0.31667-2.375 4.6445-6.2278 8.4973-7.8639 13.511-1.3722-1.0556-1.9528-2.7972-3.3778-3.7472 0.31667-0.68611 0.52778-1.4778 1.2139-1.8472z" fill="#fbfdfc" stroke="#fbfdfc"/>
   <path d="m-474.73 125.42c1.7944 2.0583 1.2667 5.6472-0.95 7.1778 0.36944-0.84445 1.0028-1.5306 1.5833-2.2694-0.475-1.6361-0.73889-3.2722-0.63334-4.9084z" fill="#fcfdff" stroke="#fcfdff"/>
   <path d="m-691.12 131.6c0.79167-1.1083 1.425-2.6389 3.0084-2.6389 0.475 1.7944-1.2139 3.0084-2.7972 3.325-1.5306 0.21112-3.1139 0.21112-4.6445 0.21112 1.3722-0.52778 2.9028-0.68612 4.4334-0.89723z" fill="#474746" stroke="#474746"/>
   <path d="m-544.77 131.33c0.95-1.3194 2.5861-1.0028 3.9584-0.95-1.1611 0.79167-2.5861 1.0556-3.9584 0.95z" fill="#5c5c5b" stroke="#5c5c5b"/>
   <path d="m-554.32 131.76c0.95-1.7417 3.4834-0.68611 5.0667-0.79167-1.4778 1.0556-3.325 0.89723-5.0667 0.79167z" fill="#4f4f4f" stroke="#4f4f4f"/>
   <path d="m-723.47 136.08c0.63333-1.7417 1.0028-3.7472 2.5333-4.9084-0.42222 1.7944-1.2139 3.5361-2.5333 4.9084z" fill="#8c8c8a" stroke="#8c8c8a"/>
   <path d="m-533.31 133.76c0.63333-0.26389 1.7944-0.475 2.0583 0.36944-0.475 0.95001-1.9 0.52779-2.0583-0.36944z" fill="#fbfdfc" stroke="#fbfdfc"/>
   <path d="m-534.47 134.13c0.31667-0.10555 0.89723-0.26388 1.1611-0.36944 0.15833 0.89723 1.5833 1.3194 2.0583 0.36944 0.0528 0.21112 0.26389 0.58056 0.36945 0.79167-3.0611 0.63334-6.1222 1.2667-9.2362 0.89723 2.0584-0.73889 4.2222-0.95 6.3862-0.84445-0.2639-0.26389-0.47501-0.58056-0.7389-0.84445z" fill="#545453" stroke="#545453"/>
   <path d="m-574.53 135.87c3.3778-1.1083 6.9139-0.42222 10.344-0.31667 1.4778 0.0528 2.5334 1.1083 3.6417 1.9 0.36944-0.42222 0.73889-0.84445 1.1083-1.2667 2.1639 0.84445 4.3278-0.15834 6.5445-0.10556 1.3194 0.42222 2.375 1.425 3.4834 2.2694-3.1139 1.2667-6.3334-0.68611-9.5-0.15833-2.0056 0.26389-4.0639 0.475-6.0695 0.21111-2.2694-0.36944-4.5917-0.10555-6.8611-0.42222-0.95001-0.63334-1.7944-1.3722-2.6917-2.1111z" fill="#403f3e" stroke="#403f3e"/>
   <path d="m-780.37 140.94c1.5833-0.84445 0.0528 1.7417 0 0z" fill="#9d9d9f" stroke="#9d9d9f"/>
   <path d="m-829.56 150.97c0.84445-0.31667 1.1611 0 0.89723 0.84445-0.89723 0.26389-1.1611 0-0.89723-0.84445z" fill="#4b4b4b" stroke="#4b4b4b"/>
   <path d="m-918.96 151.39c2.6917-0.475 5.0139 1.1611 7.2834 2.375 5.1195 2.9028 10.819 4.6972 15.675 8.0223 7.0723 4.9084 14.936 8.6556 23.117 11.242 1.2667 0.475 2.6917 0.73889 3.8 1.5833-3.4834-0.42222-6.65-1.9-9.975-2.9028-5.1195-1.7944-9.9223-4.275-14.567-7.0722-3.3778-2.1639-6.65-4.5389-10.397-5.9639-5.1722-2.0583-10.028-4.6972-14.936-7.2834z" fill="#252628" stroke="#252628"/>
   <path d="m-828.13 152.34c2.4806 0.89723 4.5389 2.6389 6.8611 3.8528 0.89722 0.42223 1.5306 1.1611 1.7417 2.1111-3.0611-1.6361-6.5445-2.9556-8.6028-5.9639z" fill="#252426" stroke="#252426"/>
   <path d="m-472.04 157.72c0.10556-1.2667 1.3194-1.9528 2.1639-2.6917 1.4778 0.73889 3.1667 0.63333 4.75 0.68611 0.95001 0.475 1.0028 1.6361 1.3722 2.5333-1.2139-0.0528-2.375-0.10555-3.5361-0.26388-0.475-0.36945-0.95-0.79167-1.425-1.1611-1.1611 0.31667-2.4806 2.5333-3.325 0.89723z" fill="#393937" stroke="#393937"/>
   <path d="m-417.47 157.04c1.7944 1.8472 3.2722 3.9584 5.225 5.5945-1.1611 3.1139-1.5833 6.4917-3.4834 9.2889 0.475-1.425 0.95001-2.85 1.7417-4.1695-0.95001-1.2139-0.52778-2.6389-0.47501-4.0111-1.3194-2.1111-2.375-4.3278-3.0083-6.7028z" fill="#fcfdff" stroke="#fcfdff"/>
   <path d="m-461.75 159.2c0.475-0.52778 1.0028-1.1083 1.5306-1.6361 4.4861 1.3722 7.9167 4.6972 11.083 7.9695-0.79167 0.95-1.6361 1.9-2.4278 2.9028-0.15833 0.21111-0.42222 0.52778-0.52778 0.68612-3.6417-1.1083-6.8611-3.1667-10.239-4.8556 1.7417-0.0528 2.85-1.3722 3.6417-2.7972-0.95001-0.84446-1.9528-1.6361-3.0611-2.2695z" fill="#3e3e3c" stroke="#3e3e3c"/>
   <path d="m-427.12 157.51c2.7972 1.5833 6.175 1.2667 8.8139 3.1139 1.9528 0.79167 1.0028 3.1667 1.1611 4.8028-1.4778-1.0028-2.6389-2.375-3.8528-3.6417-1.4778-0.42222-3.1139-0.89722-3.4306-2.6389-1.2667 0.21111-2.4278-0.26389-2.6917-1.6361z" fill="#fcfdfd" stroke="#fcfdfd"/>
   <path d="m-952.42 160.89c1.6889-0.31667 2.9028-1.7417 4.5389-2.375 1.2667 0.15833 2.1111 1.2667 3.0611 2.1111-1.0556 0-2.0583-0.15833-3.0611-0.36944 0.26388 1.7417 0.26388 3.6417 1.1611 5.1722 2.2167 1.2667 5.5417 0.79167 6.9139 3.3778-2.4278-0.36945-4.8028-1.0556-7.0195-2.1639-0.89722-0.475-1.7417-1.0028-2.5333-1.6361-0.15834-0.15833-0.42222-0.475-0.58056-0.63334-0.52778-0.52777-0.95-1.3194-1.6889-1.5306-1.0028 0.21112-2.0056 0.68612-2.9556 1.0028-0.26388 0.10555-0.73888 0.26388-0.95 0.31666v-1.0556c-0.73889-0.26389-1.4778-0.52778-2.2167-0.79167-0.0528-0.52778-0.0528-1.0556-0.10555-1.5833 1.7944-0.10556 3.6417 0.21111 5.4361 0.15834z" fill="#333433" stroke="#333433"/>
   <path d="m-427.34 160.41c0.73889-0.21111 1.0028 0.0528 0.79167 0.79167-0.73889 0.21111-1.0028-0.0528-0.79167-0.79167z" fill="#727377" stroke="#727377"/>
   <path d="m-429.02 161.68c0.7389-0.21111 0.95001 0 0.7389 0.73889-0.7389 0.26389-1.0028 0-0.7389-0.73889z" fill="#7c7c7e" stroke="#7c7c7e"/>
   <path d="m-410.97 165.32c2.1111-1.6361 4.3806-3.4834 7.2306-3.2722-1.5306 0.95001-2.2694 2.5861-3.6945 3.6417-1.9 1.5306-2.9556 4.0639-5.2778 5.0139 0.31667-1.8472 0.89723-3.6945 1.7417-5.3834z" fill="#fbfcfd" stroke="#fbfcfd"/>
   <path d="m-954.59 163.84c0.95001-0.31667 1.9528-0.79167 2.9556-1.0028 0.7389 0.21112 1.1611 1.0028 1.6889 1.5306-1.5833-0.26389-3.3778 0.68612-4.6445-0.52777z" fill="#838383" stroke="#838383"/>
   <path d="m-426.86 162.42c1.4778-0.26389 2.7972 0.21111 4.1167 0.79167-1.3722-0.21111-3.2195 0.52778-4.1167-0.79167z" fill="#fbfcfd" stroke="#fbfcfd"/>
   <path d="m-949.36 165.01c0.79167 0.63334 1.6361 1.1611 2.5333 1.6361-0.84444 0.0528-1.7417 0.10556-2.5861 0.15833 0-0.475 0-1.3194 0.0528-1.7944z" fill="#737373" stroke="#737373"/>
   <path d="m-930.73 167.12c1.5306-0.0528 3.1139 0 4.6445 0.21112-0.31667 1.3194-1.2139 2.5861-2.7444 2.6389-1.2139-0.42222-1.8472-1.5833-1.9-2.85z" fill="#363635" stroke="#363635"/>
   <path d="m-418.68 173.56c-0.58056-1.8472-0.58056-3.8-0.21112-5.7 0.36945 1.9 0.84445 3.8528 0.21112 5.7z" fill="#fff" stroke="#fcfdfe"/>
   <path d="m-934.27 170.65c2.7445-0.15833 5.3306 0.84445 7.8639 1.8472 0.63334 0.58056 1.2139 1.2139 1.8472 1.7944-1.2667 0-2.5334-0.10555-3.7472-0.15833 0.10555-0.52778 0.21111-1.0556 0.31666-1.5833-0.89722 0.10555-1.7417 0.26389-2.6389 0.36944l-0.42223 0.10556c-1.0556-0.84445-2.1639-1.5833-3.2195-2.375z" fill="#676767" stroke="#676767"/>
   <path d="m-414.25 172.5c0.475-0.15834 1.0028-0.31667 1.5306-0.475-0.42222 0.31666-0.84445 0.63333-1.2139 0.95 0.95 0.89723 3.5361 1.2139 2.6917 2.9556-0.21112 0.21111-0.58056 0.68611-0.79168 0.89723-0.15833-0.7389-0.26389-1.425-0.42222-2.1111-0.475 0.0528-0.95 0.10556-1.425 0.15834-0.26389-0.31667-0.52778-0.63334-0.84444-0.95001 0.15833-0.475 0.31666-0.95 0.475-1.425z" fill="#737475" stroke="#737475"/>
   <path d="m-930.63 172.92c0.89722-0.10555 1.7417-0.26389 2.6389-0.36944-0.10555 0.52778-0.21111 1.0556-0.31666 1.5833-0.95001-0.15834-2.2695 0.10555-2.3222-1.2139z" fill="#8e8e8e" stroke="#8e8e8e"/>
   <path d="m-926.4 172.5c2.7972 0.26389 5.5945 0.52778 8.3389 1.2139 2.0056 0.47501 4.0639 0.26389 6.0695 0.31667 1.7944 0.10556 3.325 1.1083 4.9611 1.7417-1.8472 0-3.7472 0.0528-5.5945-0.0528-4.0111-0.0528-7.9167-1.0556-11.928-1.425-0.63334-0.58056-1.2139-1.2139-1.8472-1.7944z" fill="#303030" stroke="#303030"/>
   <path d="m-415.14 175.19c0.10556-0.42222 0.26389-0.84445 0.42223-1.2667 0.31666 0.31667 0.58055 0.63334 0.84444 0.95001 0.47501-0.0528 0.95001-0.10555 1.425-0.15834 0.15833 0.68612 0.26389 1.3722 0.42222 2.1111-0.63333 0.68611-1.2667 1.425-1.9 2.1111-0.31667-1.2667-0.7389-2.4806-1.2139-3.7472z" fill="#474948" stroke="#474948"/>
   <path d="m-912.63 175.72c1.8472 0.10555 3.7472 0.0528 5.5945 0.0528 2.6389 0.58056 5.0667 1.9 7.1778 3.5889-3.2195-0.68611-6.5973-1.0028-9.5528-2.4806-1.0556-0.475-2.1111-0.79167-3.2194-1.1611z" fill="#6b6d6c" stroke="#6b6d6c"/>
   <path d="m-441.74 176.14c1.9 0.475 3.8 1.1611 5.5417 2.1111-0.21111 0.10556-0.68611 0.31667-0.89722 0.42223-1.7417-0.0528-3.325-1.425-4.6445-2.5334z" fill="#646462" stroke="#646462"/>
   <path d="m-436.2 178.25c0.63334 0.31667 1.2667 0.58056 1.9 0.89723 0.21111 0.58056 0.42223 1.1083 0.63334 1.6889-1.3194-0.36945-2.9556-0.68612-3.4306-2.1639 0.21111-0.10556 0.68611-0.31667 0.89722-0.42223z" fill="#8a8a88" stroke="#8a8a88"/>
   <path d="m-434.3 179.15c1.7944 0.79167 2.85 2.5333 4.2222 3.8528 0.21111-0.31667 0.58056-0.89723 0.79167-1.2139 0.58056-0.10556 1.2139-0.21111 1.7945-0.31667 0.63333-0.73889 1.2667-1.4778 1.9528-2.1639 0.15833 0.7389 0.31667 1.5306 0.475 2.3222 1.3722 0.26389 2.7445 0.52777 4.1167 0.79167-3.2195 1.7417-7.0722 1.8472-10.608 1.4778-0.73889-1.0028-1.3194-2.1111-2.1111-3.0611-0.21111-0.58056-0.42223-1.1083-0.63334-1.6889z" fill="#464645" stroke="#464645"/>
   <path d="m-806.86 181.63c1.7945-0.10556 3.5361 0 5.225 0.52777-1.7417-0.26388-3.4306-0.10555-5.1722 0.31667 0-0.21111 0-0.63333-0.0528-0.84444z" fill="#6b6d6c" stroke="#6b6d6c"/>
   <path d="m-759.78 184.8c0.68611 0.73889 1.425 1.4778 2.1639 2.2167 0.0528 0.42223 0.15834 1.2139 0.21112 1.5833 1.6361 0.36945 3.1139-0.52778 4.4861-1.2139-0.52779 1.425-1.6889 2.3222-2.9028 3.1139-1.1083-1.2139-2.1111-2.4806-3.325-3.5889-0.73889-0.26389-1.5306 0.15833-2.2695 0.21111 0.58056-0.73889 1.1083-1.5306 1.6361-2.3222z" fill="#6b6d6c" stroke="#6b6d6c"/>
   <path d="m-763.37 186.28c0.42222-0.58056 1.5306 0 1.1611 0.68612-0.42222 0.58055-1.5833-0.0528-1.1611-0.68612z" fill="#3d3d3d" stroke="#3d3d3d"/>
   <path d="m-860.64 189.81c3.8 0.21111 7.4945 1.3722 11.242 2.0056 3.5361 0.58056 6.9667 1.6361 10.45 2.3222 2.375 0.63333 4.8556 0.68611 7.2834 0.95-3.1667 0.10556-6.3334 0.31667-9.5 0.63334 0.31666-0.36945 0.58056-0.79167 0.89722-1.1611-1.425-0.21111-2.9556 0.10555-4.2222-0.58056-1.7944-1.425-4.2222-1.6889-6.3334-0.95-1.2667 0.68611-2.2167-0.58056-3.1139-1.2667-2.375 0.21112-4.5389-0.95-6.8611-1.1611 0.0528-0.21112 0.10555-0.58056 0.15833-0.79167z" fill="#888886" stroke="#888886"/>
   <path d="m-814.46 192.4c3.5361-2.5861 8.1806-2.85 12.35-2.1111 3.6417 0.89723 7.1778 2.1639 10.925 2.4278 2.4806 0.26389 4.9611-0.26389 7.3889 0.21111-0.58056 0.58056-1.1083 1.1611-1.6361 1.7417-2.3222-1.2139-5.0139-0.73889-7.4945-1.1083l-0.31667-0.10556c-3.1667-1.0556-6.4917-0.52778-9.7639-0.84445 0.79167-0.42222 1.5833-0.84445 2.375-1.2139-2.2167 0.0528-4.3806 0.475-6.5445 0.0528 1.3722 1.2139 3.1667 1.5833 4.9611 1.7944-0.73889 0.26389-1.425 0.52778-2.2167 0.73889-1.1083-0.26389-2.1111-0.95-3.2195-1.2139-1.8472-0.89723-3.8528-0.26389-5.7 0.31666-0.26389-0.15833-0.84445-0.475-1.1083-0.68611z" fill="#363734" stroke="#363734"/>
   <path d="m-807.18 191.45c2.1639 0.42222 4.3278 0 6.5445-0.0528-0.79167 0.36944-1.5833 0.79167-2.375 1.2139 3.2722 0.31667 6.5972-0.21111 9.7639 0.84445-2.1639 0.63334-4.3806-0.31667-6.5445-0.10556-0.79167 0.0528-1.6361 0-2.4278-0.10555-1.7944-0.21111-3.5889-0.58056-4.9611-1.7944z" fill="#8c8c8a" stroke="#8c8c8a"/>
   <path d="m-813.35 193.08c1.8472-0.58055 3.8528-1.2139 5.7-0.31666-1.5833 1.0556-3.4306 1.6361-5.2778 2.0583-0.15833-0.58056-0.26388-1.1611-0.42222-1.7417z" fill="#545453" stroke="#545453"/>
   <path d="m-850.83 193.03c2.1111-0.7389 4.5389-0.47501 6.3334 0.95-1.4778 0.63334-2.85-0.475-4.1167-0.95-0.68612 0.52778-1.4778 0.79167-2.1639 1.3194-0.0528-0.31667-0.0528-1.0028-0.0528-1.3194z" fill="#c5c5c5" stroke="#c5c5c5"/>
   <path d="m-815.73 193.14c0.42222-0.26389 0.84445-0.475 1.2667-0.73889 0.26389 0.21111 0.84445 0.52778 1.1083 0.68611 0.15834 0.58056 0.26389 1.1611 0.42222 1.7417l0.0528 0.31667c-2.375 0.58056-4.8028 1.2139-7.2306 1.7417 1.1083-1.2139 2.3222-2.4278 3.6945-3.3778 0.15834-0.10556 0.52779-0.31667 0.68612-0.36945z" fill="#898987" stroke="#898987"/>
   <path d="m-824.38 194.46c2.6917-0.21111 5.225-1.7417 7.9695-0.95-1.3722 0.95-2.5861 2.1639-3.6945 3.3778l-0.26389 0.31667c-2.6389-0.0528-5.1195-0.84445-7.7056-1.0028-1.3195 0.0528-2.4278-0.68612-3.5889-1.1083-2.4278-0.26389-4.9084-0.31667-7.2834-0.95 2.5334-0.36945 5.1195-0.52778 7.6528-0.15834 1.3722 0.21111 2.5334 1.1611 3.9056 1.425 0.95-0.36945 1.9-0.89723 3.0084-0.95001z" fill="#4b4b49" stroke="#4b4b49"/>
   <path d="m-792.93 193.56c2.4806 0.36944 5.1722-0.10556 7.4945 1.1083 2.5334 1.9 5.8056 1.5833 8.7084 2.5334h-1.6889c-5.0139-0.31667-10.028-1.425-14.514-3.6417z" fill="#8c8c8a" stroke="#8c8c8a"/>
   <path d="m-785.43 194.67c0.52778-0.58055 1.0556-1.1611 1.6361-1.7417 1.425 0.58056 2.9556 1.0028 4.5389 0.89723 0.36944 0.84444 0.68611 1.7944 1.6361 2.1111 3.3778 1.425 7.125 0.95 10.714 1.1083 1.7417-0.10555 2.9556 1.3722 4.6445 1.4778 1.9 0.26389 3.8 0.475 5.7 0.79167-0.31667 0.15833-1.0028 0.475-1.3722 0.58056-2.7972-0.15834-5.6472-0.15834-8.2861-1.1083-1.7944-0.68611-3.7472-0.79167-5.6472-0.95001-1.6361-0.15833-3.2722-0.36944-4.8556-0.63333-2.9028-0.95001-6.175-0.63334-8.7084-2.5334z" fill="#4c4c4a" stroke="#4c4c4a"/>
   <path d="m-779.26 193.82c4.0639-0.0528 7.9167 1.4778 11.875 2.1111 0.475-0.26389 0.95001-0.58056 1.425-0.84445 0.15833 0.26389 0.36944 0.52778 0.52778 0.79167 0.63333-0.36945 1.2139-0.79167 1.8472-1.0028 2.1111 0.36944 3.9056 2.0583 6.1222 1.5833 1.9528-0.42223 3.9584-0.475 5.9111-0.26389-1.5306 1.2139-3.1139 2.6389-5.0139 3.1139-1.9-0.31667-3.8-0.52778-5.7-0.79167-1.6889-0.10556-2.9028-1.5833-4.6445-1.4778-3.5889-0.15833-7.3361 0.31667-10.714-1.1083-0.95001-0.31667-1.2667-1.2667-1.6361-2.1111z" fill="#3a3a38" stroke="#3a3a38"/>
   <path d="m-810.5 195.41c0.42223-0.52778 1.6889-0.68612 1.7417 0.15833-0.0528 1.1083-2.4278 1.0556-1.7417-0.15833z" fill="#8e8e8f" stroke="#8e8e8f"/>
   <path d="m-819.11 198.31c2.1111-1.3722 4.6445-2.0584 7.1778-1.7417-0.58056 0.52778-1.2139 1.0028-2.0056 1.1083-1.6889 0.31667-3.4306 0.84445-5.1722 0.63334z" fill="#888886" stroke="#888886"/>
   <path d="m-778.41 197.2h1.6889c1.5833 0.26389 3.2195 0.475 4.8556 0.63333-0.26389 0.21112-0.73889 0.68612-0.95001 0.89723-0.95 0.36945-1.7944-0.475-2.5861-0.79167-1.0028 0.10556-1.9528 0.26389-2.9028 0.36945 0-0.26389-0.0528-0.84445-0.10555-1.1083z" fill="#b4b4b4" stroke="#b4b4b4"/>
   <path d="m-771.87 197.83c1.9 0.15834 3.8528 0.2639 5.6472 0.95001 2.6389 0.95 5.4889 0.95 8.2861 1.1083l-0.0528 0.68611c-2.4806-0.26389-4.9084-0.95-7.3889-0.52778-2.5333-0.26389-5.0139-0.79167-7.4417-1.3194 0.21112-0.21111 0.68612-0.68611 0.95001-0.89723z" fill="#858583" stroke="#858583"/>
  </g>
 </g>
</svg>
