<?xml version="1.0" standalone="no"?>
<!DOCTYPE svg PUBLIC "-//W3C//DTD SVG 20010904//EN"
 "http://www.w3.org/TR/2001/REC-SVG-20010904/DTD/svg10.dtd">
<svg version="1.0" xmlns="http://www.w3.org/2000/svg"
 width="1024.000000pt" height="1024.000000pt" viewBox="0 0 1024.000000 1024.000000"
 preserveAspectRatio="xMidYMid meet">
<metadata>
Created by potrace 1.14, written by Peter Selinger 2001-2017
</metadata>
<g transform="translate(0.000000,1024.000000) scale(0.100000,-0.100000)"
fill="#000000" stroke="none">
<path d="M0 5120 l0 -5120 5120 0 5120 0 0 5120 0 5120 -5120 0 -5120 0 0
-5120z m5269 3801 c33 -10 80 -30 103 -44 62 -37 3491 -3472 3516 -3522 70
-142 70 -328 0 -470 -13 -26 -484 -504 -1371 -1392 -1303 -1304 -1352 -1352
-1370 -1335 -32 29 -182 232 -242 327 -71 112 -182 338 -230 469 -96 259 -155
597 -155 881 0 151 17 417 36 555 45 338 186 517 456 577 121 27 347 22 632
-16 339 -44 500 -41 601 11 46 24 105 88 128 138 26 56 35 204 18 293 -69 364
-390 869 -776 1219 -579 525 -1227 733 -1871 598 -314 -65 -667 -240 -964
-476 -119 -95 -380 -358 -483 -488 -161 -203 -297 -424 -389 -636 -211 -480
-134 -775 207 -797 103 -7 216 8 495 62 279 55 327 62 469 75 262 22 450 -34
538 -163 79 -116 99 -290 83 -734 -13 -396 -44 -622 -124 -914 -90 -327 -252
-686 -429 -948 l-49 -74 -1355 1354 c-745 745 -1366 1373 -1380 1397 -81 135
-85 337 -11 487 25 50 3454 3485 3516 3522 107 64 278 82 401 44z m-65 -2173
c78 -35 98 -250 31 -322 -66 -71 -241 17 -270 136 -15 62 32 138 109 174 57
26 92 30 130 12z m571 -477 c53 -24 112 -80 121 -116 4 -18 2 -38 -7 -54 -16
-29 -91 -71 -127 -71 -43 0 -92 31 -112 71 -31 61 -24 156 14 181 19 13 70 8
111 -11z m-1630 -45 c68 -52 95 -125 58 -159 -63 -55 -276 -43 -346 20 -22 21
-16 54 18 99 60 78 194 98 270 40z m695 -334 c67 -21 130 -77 130 -116 0 -95
-112 -216 -215 -231 -126 -19 -255 102 -255 241 0 78 32 109 130 128 41 7 151
-4 210 -22z m1795 -182 c38 -42 27 -167 -16 -191 -57 -30 -165 84 -144 152 17
51 124 78 160 39z m-829 -84 c88 -41 119 -112 69 -162 -72 -72 -281 -107 -337
-57 -24 22 -24 93 2 143 47 93 160 125 266 76z m-2255 -86 c46 -13 123 -68
155 -111 54 -73 10 -127 -110 -136 -121 -10 -186 36 -186 130 1 59 16 94 51
113 29 16 44 17 90 4z m2010 -548 c-177 -181 -242 -386 -272 -862 -22 -347 0
-669 64 -940 102 -427 311 -842 585 -1158 l55 -64 -319 -319 c-382 -383 -383
-384 -554 -384 -170 0 -167 -2 -537 367 l-311 311 33 46 c173 242 348 598 454
924 121 371 164 634 183 1121 21 552 -13 754 -156 929 l-44 54 352 7 c193 4
383 11 421 15 39 4 77 9 86 9 10 1 -6 -22 -40 -56z"/>
</g>
</svg>
